<svg width="54" height="54" fill="none" xmlns="http://www.w3.org/2000/svg"><path d="M47.648 15.794l-6.687 3.85v-7.94c0-1.845-1.5-3.345-3.344-3.345H6.687a3.347 3.347 0 00-3.343 3.344v30.094c0 1.844 1.5 3.344 3.344 3.344h30.93c1.843 0 3.343-1.5 3.343-3.344v-7.941l6.687 3.85c1.113.643 2.508-.162 2.508-1.442V17.241c0-1.285-1.395-2.09-2.508-1.447zM37.2 41.379H7.105V12.12H37.2v29.26zm9.196-8.725l-5.434-3.125v-5.553l5.434-3.13v11.808zM10.867 18.809h5.852a.42.42 0 00.418-.418v-2.508a.42.42 0 00-.418-.418h-5.852a.42.42 0 00-.418.418v2.508c0 .23.188.418.418.418z" fill="#fff"/></svg>