<svg width="16" height="13" fill="none" xmlns="http://www.w3.org/2000/svg"><path d="M15.625 3.999h-1.871l-.52-1.301A3.482 3.482 0 009.984.497H6.016c-1.44 0-2.715.864-3.25 2.2L2.246 4H.376a.375.375 0 00-.365.466l.188.75a.375.375 0 00.364.284h.627C.77 5.866.5 6.4.5 7v1.501c0 .504.192.96.5 1.311v1.69a1 1 0 001 1.001h1a1 1 0 001-1v-1h8v1a1 1 0 001 1h1a1 1 0 001-1v-1.69c.307-.353.5-.808.5-1.312v-1.5c0-.602-.27-1.135-.69-1.502h.627a.375.375 0 00.364-.284l.188-.75a.375.375 0 00-.364-.466zM4.623 3.44a1.5 1.5 0 011.393-.943h3.968a1.5 1.5 0 011.393.943L12 5H4l.623-1.558zM3 8.495c-.6 0-1-.4-1-.998S2.4 6.5 3 6.5s1.5.898 1.5 1.496c0 .599-.9.499-1.5.499zm10 0c-.6 0-1.5.1-1.5-.499 0-.598.9-1.496 1.5-1.496s1 .399 1 .997c0 .599-.4.998-1 .998z" fill="#fff"/></svg>