<svg width="53" height="53" fill="none" xmlns="http://www.w3.org/2000/svg"><path d="M42.298 20.717c-.278 0-1.475.009-1.907.032l-5.9.155L20.882 4.375h-6.415l7.619 16.813-9.94.147-4.522-5.52H2.302l2.105 9.62c.015.054.034.109.054.162a.027.027 0 010 .015c-.02.053-.039.107-.054.161l-2.134 9.653h5.29l4.641-5.618 9.885.221-7.622 16.836h6.435l13.584-16.52 5.901.156c.438.024 1.634.032 1.906.032 2.487 0 4.522-.341 6.048-1.015 2.588-1.14 2.974-2.932 2.974-3.898 0-3.07-3.37-4.903-9.017-4.903z" fill="#fff"/></svg>