<svg width="54" height="54" fill="none" xmlns="http://www.w3.org/2000/svg"><path fill-rule="evenodd" clip-rule="evenodd" d="M26.625 8.875c6.117 0 11.094 4.977 11.094 11.094 0 5.356-3.819 9.84-8.875 10.867v2.445a2.217 2.217 0 01-2.219 2.219 2.217 2.217 0 01-2.219-2.219v-4.437c0-1.227.992-2.219 2.219-2.219a6.664 6.664 0 006.656-6.656 6.664 6.664 0 00-6.656-6.657 6.664 6.664 0 00-6.656 6.657 2.217 2.217 0 01-2.219 2.218 2.217 2.217 0 01-2.219-2.218c0-6.117 4.977-11.094 11.094-11.094zm-2.219 33.281c0-1.227.992-2.218 2.219-2.218 1.227 0 2.219.991 2.219 2.218a2.217 2.217 0 01-2.219 2.219 2.217 2.217 0 01-2.219-2.219z" fill="#fff"/></svg>