<svg width="36" height="35" fill="none" xmlns="http://www.w3.org/2000/svg"><path d="M17.821 0C8.096 0 .211 7.723.211 17.25c0 9.527 7.885 17.25 17.61 17.25 9.726 0 17.61-7.723 17.61-17.25C35.432 7.723 27.548 0 17.822 0zm8.933 19.116c.82.785 1.69 1.524 2.426 2.39.327.384.634.78.869 1.226.334.636.032 1.333-.549 1.37h-3.608c-.931.075-1.673-.293-2.298-.917-.5-.497-.962-1.028-1.443-1.543a3.349 3.349 0 00-.65-.566c-.491-.313-.919-.217-1.2.286-.288.512-.353 1.08-.38 1.65-.04.833-.296 1.05-1.15 1.09-1.824.084-3.554-.187-5.163-1.088-1.419-.795-2.517-1.916-3.474-3.185-1.864-2.475-3.29-5.192-4.573-7.986-.289-.629-.078-.966.631-.979a102.46 102.46 0 013.533 0c.479.007.796.275.98.718.636 1.534 1.416 2.993 2.394 4.346.26.36.526.72.905.974.418.28.737.188.934-.269.126-.29.18-.601.208-.912.093-1.066.104-2.132-.058-3.194-.1-.665-.482-1.094-1.158-1.22-.345-.064-.294-.189-.127-.381.29-.334.563-.54 1.108-.54h4.076c.642.123.786.405.874 1.04l.003 4.437c-.007.245.126.972.576 1.133.36.116.598-.167.813-.39.978-1.017 1.674-2.216 2.298-3.457.275-.548.513-1.114.743-1.682.172-.42.438-.626.922-.619l3.925.005c.116 0 .233.001.348.02.662.111.843.39.638 1.022-.322.993-.948 1.82-1.56 2.65-.655.888-1.355 1.745-2.004 2.637-.597.815-.55 1.226.191 1.934z" fill="#EDC5A2"/></svg>