<svg width="15" height="15" fill="none" xmlns="http://www.w3.org/2000/svg"><path d="M5.446 7.5c0 1.135.919 2.054 2.054 2.054A2.052 2.052 0 009.554 7.5 2.052 2.052 0 007.5 5.446 2.051 2.051 0 005.446 7.5zm7.738-2.191l-3.433.177c.932 1.088.947 2.658.163 3.863L7.16 13.585a6.067 6.067 0 003.387-.809 6.088 6.088 0 002.637-7.467zM4.692 8.67L2.399 4.162A6.084 6.084 0 001.406 7.5a6.083 6.083 0 005.148 6.018L8.12 10.45c-1.415.267-2.782-.51-3.428-1.78zm3.2-4.182l5.045.265a6.1 6.1 0 00-5.459-3.347A6.091 6.091 0 002.76 3.67l1.878 2.885c.468-1.347 1.828-2.15 3.255-2.066z" fill="#fff"/></svg>