<?xml version="1.0" encoding="utf-8"?><svg viewBox="0 0 512 512" xmlns="http://www.w3.org/2000/svg" xmlns:xlink="http://www.w3.org/1999/xlink"><style>:root>svg{display:none}:root>svg:target{display:block}</style><svg viewBox="0 0 150 46" id="appstore" xmlns="http://www.w3.org/2000/svg"><rect x=".791" y=".631" width="148.279" height="45" rx="6.27"/><path fill-rule="evenodd" clip-rule="evenodd" d="M44.715 16.828h2.62a4.14 4.14 0 001.677-.311c.45-.192.85-.485 1.169-.855.315-.375.548-.812.683-1.283.15-.52.225-1.06.221-1.601.001-.503-.058-1.004-.175-1.493a3.445 3.445 0 00-.605-1.29c-.302-.39-.696-.7-1.145-.905a4.21 4.21 0 00-1.802-.34h-2.642v8.078zm.497-.43V9.18h2.066c.222.001.443.015.664.04.25.027.498.082.737.163.252.087.492.207.712.357.243.169.45.384.61.633.193.306.338.64.429.99.118.462.173.938.164 1.415a4.6 4.6 0 01-.288 1.747c-.164.42-.42.8-.75 1.107-.298.27-.65.47-1.034.59a3.83 3.83 0 01-1.134.175h-2.176zm6.724-1.3c.108.352.284.68.517.966.227.277.512.5.835.656a2.796 2.796 0 002.282 0c.322-.155.607-.38.835-.656.232-.286.407-.614.516-.967.118-.38.177-.778.175-1.176a3.835 3.835 0 00-.175-1.171 2.957 2.957 0 00-.516-.967 2.447 2.447 0 00-.835-.664 2.797 2.797 0 00-2.282 0 2.44 2.44 0 00-.835.664 2.928 2.928 0 00-.517.967 3.835 3.835 0 00-.174 1.17c-.003.4.056.796.174 1.177zm.402-2.178c.09-.308.236-.597.428-.854.187-.248.426-.45.7-.594a2.2 2.2 0 011.918 0c.275.144.514.346.7.594.193.257.338.546.43.854.195.653.195 1.349 0 2.002a2.714 2.714 0 01-.43.854 2.109 2.109 0 01-.7.59 2.2 2.2 0 01-1.918 0 2.1 2.1 0 01-.7-.59 2.714 2.714 0 01-.428-.854 3.485 3.485 0 010-2.002zm5.477-1.906h-.464l1.845 5.814h.537l1.604-5.271h.022l1.593 5.271h.53l1.864-5.814h-.475l-1.623 5.316h-.023l-1.591-5.316h-.577l-1.58 5.316h-.023l-1.64-5.316zm7.745 5.814h.429v-3.145a3.226 3.226 0 01.142-.978c.084-.281.224-.543.411-.77a1.91 1.91 0 01.655-.503c.277-.124.578-.186.881-.18.321-.018.64.057.92.214.207.128.378.306.497.517.108.194.175.407.198.628.02.18.032.361.034.543v3.676h.43v-3.599c0-.12 0-.262-.013-.424a3.026 3.026 0 00-.067-.503 2.163 2.163 0 00-.186-.517 1.581 1.581 0 00-.937-.786 2.638 2.638 0 00-.865-.125c-.224 0-.448.031-.664.091a2.14 2.14 0 00-1.09.707c-.14.173-.25.37-.321.583h-.023v-1.243h-.43v5.814zm5.488-8.076v8.076h.43V8.752h-.43zm1.734 6.344c.108.352.283.68.516.967.228.277.513.5.836.656a2.793 2.793 0 002.28 0c.324-.156.609-.38.837-.656.233-.286.408-.615.516-.967.119-.381.178-.778.176-1.177a3.813 3.813 0 00-.176-1.17 2.942 2.942 0 00-.516-.968 2.443 2.443 0 00-.836-.664 2.796 2.796 0 00-2.281 0c-.324.157-.61.384-.836.664a2.942 2.942 0 00-.516.967 3.815 3.815 0 00-.175 1.171c-.003.4.056.797.175 1.178v-.001zm.4-2.178a2.73 2.73 0 01.43-.854c.186-.248.425-.45.7-.594a2.198 2.198 0 011.918 0c.274.144.513.346.7.594.192.257.337.546.43.854.195.653.195 1.35 0 2.002a2.729 2.729 0 01-.43.854 2.093 2.093 0 01-.7.59 2.198 2.198 0 01-1.918 0 2.095 2.095 0 01-.7-.59 2.729 2.729 0 01-.43-.854 3.487 3.487 0 01.001-2v-.002zm10.13 3.06c0 .112.009.224.028.334a.667.667 0 00.108.265.54.54 0 00.231.182c.131.05.271.073.412.068.118 0 .236-.016.35-.046v-.363c-.104.02-.21.03-.316.034a.353.353 0 01-.226-.063.342.342 0 01-.113-.164.818.818 0 01-.04-.226c0-.083-.005-.166-.005-.249v-3.38a1.357 1.357 0 00-.48-1.08 2.323 2.323 0 00-1.53-.412 2.446 2.446 0 00-1.623.48c-.403.37-.627.896-.615 1.443h.43a1.52 1.52 0 01.524-1.165c.363-.27.807-.406 1.259-.384.251-.006.503.025.746.09.18.05.349.134.496.25a.99.99 0 01.373.804c.002.17-.01.34-.034.509a.578.578 0 01-.17.333.931.931 0 01-.4.204 3.927 3.927 0 01-.729.108l-.664.056a6.683 6.683 0 00-.728.113 2.193 2.193 0 00-.689.266c-.472.276-.75.794-.717 1.34-.037.47.151.93.508 1.239.42.292.925.434 1.435.402.26.001.518-.034.768-.106a2.31 2.31 0 00.627-.283 2.07 2.07 0 00.468-.412c.125-.147.224-.313.295-.492h.023v.305h-.002zm0-1.37c-.01.147-.03.293-.062.436-.052.238-.15.464-.288.664-.171.25-.394.458-.655.61a2.191 2.191 0 01-1.163.267 1.801 1.801 0 01-1.118-.311 1.128 1.128 0 01-.407-.96c-.01-.231.045-.461.159-.663a1.17 1.17 0 01.411-.401c.178-.101.37-.172.57-.21.212-.041.423-.073.634-.096l.722-.068c.24-.019.48-.053.717-.101a.812.812 0 00.48-.26v1.095-.001zm6.764 2.219h.43V8.752h-.43v3.563h-.023a1.991 1.991 0 00-.83-1.063 2.516 2.516 0 00-1.316-.373 2.569 2.569 0 00-1.14.237c-.315.151-.59.372-.808.645a2.741 2.741 0 00-.48.969 4.62 4.62 0 00-.01 2.352c.089.348.242.675.45.967.206.279.472.506.78.664a2.693 2.693 0 002.45-.096 2.64 2.64 0 00.904-1.033h.022v1.245-.002zm-3.128-.459a1.972 1.972 0 01-.672-.59 2.65 2.65 0 01-.395-.854 3.757 3.757 0 01-.13-.99c-.001-.34.039-.677.118-1.007.073-.308.203-.6.385-.86.175-.247.404-.45.671-.593.304-.155.642-.231.983-.222.336-.007.668.07.965.227.27.146.5.353.672.605.178.262.31.553.39.86a3.787 3.787 0 010 1.967 2.64 2.64 0 01-.395.854c-.174.247-.401.452-.664.6a1.918 1.918 0 01-.954.226 2.011 2.011 0 01-.973-.221l-.001-.002zm7.968-1.272c.108.352.283.68.516.967.228.277.513.5.836.656a2.793 2.793 0 002.28 0c.324-.156.609-.38.837-.656.233-.286.408-.615.516-.967.119-.381.178-.778.176-1.177a3.844 3.844 0 00-.176-1.17 2.942 2.942 0 00-.516-.968 2.444 2.444 0 00-.836-.664 2.796 2.796 0 00-2.281 0c-.324.157-.61.384-.836.664a2.94 2.94 0 00-.516.967 3.81 3.81 0 00-.176 1.171c-.002.4.057.797.176 1.178v-.001zm.4-2.178a2.73 2.73 0 01.429-.854c.186-.248.425-.45.7-.594a2.199 2.199 0 011.918 0c.275.144.514.346.7.594.192.257.338.546.43.854.195.653.195 1.35 0 2.002a2.729 2.729 0 01-.43.854 2.093 2.093 0 01-.7.59 2.199 2.199 0 01-1.918 0 2.095 2.095 0 01-.7-.59 2.729 2.729 0 01-.43-.854 3.487 3.487 0 01.001-2v-.002zm5.781 3.91h.429v-3.145a3.273 3.273 0 01.141-.978 2.22 2.22 0 01.413-.77c.179-.213.402-.385.655-.503a2.04 2.04 0 01.88-.18 1.69 1.69 0 01.921.214c.207.128.377.306.497.517.107.194.174.407.197.628.021.18.032.361.034.543v3.676h.428v-3.599c0-.12-.004-.262-.012-.424a3.047 3.047 0 00-.067-.503 2.202 2.202 0 00-.186-.517 1.591 1.591 0 00-.356-.458 1.691 1.691 0 00-.582-.328 2.626 2.626 0 00-.864-.125c-.224 0-.448.031-.664.091a2.136 2.136 0 00-1.089.707c-.142.173-.251.37-.322.583h-.023v-1.243h-.429v5.814h-.001zm11.586-5.815h-1.264v-1.81h-.429v1.81h-1.073v.374h1.073v4.057c-.027.266.014.534.118.78a.99.99 0 00.378.425c.168.097.355.155.548.17.212.018.426.02.638.005v-.37a3.977 3.977 0 01-.536-.011.856.856 0 01-.395-.13.63.63 0 01-.243-.311 1.555 1.555 0 01-.079-.554V11.39h1.264v-.377zm.517-2.262v8.076h.429v-3.144a3.241 3.241 0 01.141-.978 2.22 2.22 0 01.413-.77c.179-.213.402-.385.655-.503.278-.125.582-.186.887-.178.321-.018.64.057.92.214.207.128.378.306.497.517.107.194.175.407.198.628.022.22.034.4.034.543v3.676h.428v-3.601c0-.12-.003-.262-.011-.424a3.044 3.044 0 00-.067-.504 2.154 2.154 0 00-.186-.516 1.598 1.598 0 00-.938-.786 2.634 2.634 0 00-.864-.125c-.224 0-.448.03-.664.09a2.139 2.139 0 00-1.089.708c-.142.173-.251.37-.323.582h-.022V8.751h-.438zm11.439 5.226c0-.03 0-.07.006-.119.005-.05.005-.092.005-.13a3.616 3.616 0 00-.163-1.103 2.739 2.739 0 00-.481-.905 2.256 2.256 0 00-.784-.617 2.45 2.45 0 00-1.078-.226 2.486 2.486 0 00-1.158.255 2.446 2.446 0 00-.819.678c-.224.294-.39.628-.491.984-.11.38-.165.775-.164 1.171-.003.399.05.796.158 1.18.096.346.259.669.48.95.216.27.491.486.802.634.352.161.737.24 1.124.232.61.03 1.21-.163 1.688-.543.45-.407.744-.96.83-1.561h-.429a2.4 2.4 0 01-.702 1.273c-.386.32-.88.485-1.381.458a2.041 2.041 0 01-.935-.204 1.907 1.907 0 01-.664-.555 2.493 2.493 0 01-.402-.811 3.445 3.445 0 01-.136-.973v-.067h4.698l-.004-.001zm-4.686-.373c.023-.302.084-.6.182-.886.091-.274.233-.53.418-.752.185-.218.412-.395.668-.52.288-.136.604-.201.922-.192a1.889 1.889 0 011.512.709c.181.22.317.474.402.746.092.292.145.594.159.9h-4.258l-.005-.005zM42.988 36.056h.96l1.849-4.662h6.951l1.83 4.662h.955L49.801 21.52h-.976l-5.837 14.537zm3.09-5.436l3.233-8.225h.04l3.11 8.225H46.08zm11.058-5.029h-.752v14.212h.752v-5.925h.04c.252.78.781 1.44 1.488 1.853a4.675 4.675 0 002.323.57 4.964 4.964 0 002.088-.408 3.984 3.984 0 001.467-1.129c.401-.51.696-1.095.866-1.721a7.963 7.963 0 00.285-2.198 7.616 7.616 0 00-.284-2.098 5.166 5.166 0 00-.864-1.751 4.238 4.238 0 00-1.464-1.201 4.554 4.554 0 00-2.083-.448 3.996 3.996 0 00-2.642.926c-.296.246-.55.538-.753.865a4.005 4.005 0 00-.406.856h-.06v-2.403zm2.007 9.64a3.181 3.181 0 01-1.18-1.058 4.359 4.359 0 01-.621-1.527 8.647 8.647 0 01-.184-1.802 7.842 7.842 0 01.204-1.802c.124-.549.35-1.07.664-1.537a3.45 3.45 0 011.192-1.08 4.085 4.085 0 013.577.01c.484.268.899.645 1.212 1.1.32.473.555.997.694 1.55a7.19 7.19 0 01-.01 3.604 4.53 4.53 0 01-.714 1.517c-.32.435-.738.79-1.219 1.037a3.772 3.772 0 01-1.763.387 3.88 3.88 0 01-1.848-.4l-.004.002zm9.782-9.64h-.752v14.212h.752v-5.925h.04c.251.78.78 1.44 1.487 1.853a4.676 4.676 0 002.323.57 4.964 4.964 0 002.088-.408 3.968 3.968 0 001.467-1.129 4.82 4.82 0 00.866-1.721 7.966 7.966 0 00.286-2.198 7.613 7.613 0 00-.285-2.098 5.166 5.166 0 00-.864-1.751 4.23 4.23 0 00-1.464-1.201 4.552 4.552 0 00-2.083-.448 3.996 3.996 0 00-2.642.926c-.294.247-.546.54-.747.866-.169.268-.306.555-.406.856h-.062v-2.403h-.004zm2.007 9.64a3.179 3.179 0 01-1.18-1.058 4.373 4.373 0 01-.621-1.527 8.66 8.66 0 01-.184-1.802 7.848 7.848 0 01.204-1.802c.124-.549.35-1.07.664-1.537a3.457 3.457 0 011.192-1.08 4.083 4.083 0 013.577.01c.484.269.899.645 1.213 1.1.32.473.554.997.692 1.55a7.19 7.19 0 01-.01 3.604 4.53 4.53 0 01-.713 1.517c-.322.436-.74.792-1.223 1.038a3.772 3.772 0 01-1.763.387 3.88 3.88 0 01-1.844-.402l-.004.002zm24.52-9.559a4.94 4.94 0 00-.509-2.056 3.984 3.984 0 00-1.189-1.395 5.063 5.063 0 00-1.728-.794 8.48 8.48 0 00-2.124-.254 7.265 7.265 0 00-1.728.213c-.56.133-1.092.36-1.575.672a3.576 3.576 0 00-1.138 1.202 3.454 3.454 0 00-.438 1.782 3.081 3.081 0 00.427 1.696c.285.442.668.81 1.119 1.08a6.217 6.217 0 001.585.663c.596.164 1.2.306 1.809.428.624.122 1.23.255 1.82.397a7.24 7.24 0 011.585.57c.444.219.831.54 1.128.937.3.44.45.965.427 1.496a2.822 2.822 0 01-.417 1.589c-.268.41-.621.758-1.037 1.018-.419.26-.88.446-1.361.55a6.523 6.523 0 01-1.393.162 8.754 8.754 0 01-2.053-.234 4.664 4.664 0 01-1.696-.764 3.652 3.652 0 01-1.128-1.353 4.069 4.069 0 01-.346-2.026h-.894c-.038.819.119 1.635.457 2.382a4.32 4.32 0 001.31 1.598 5.37 5.37 0 001.952.896c.786.188 1.591.28 2.4.274a7.556 7.556 0 001.737-.213 5.097 5.097 0 001.646-.703 4.107 4.107 0 001.23-1.262 3.518 3.518 0 00.488-1.914 3.339 3.339 0 00-.427-1.761 3.434 3.434 0 00-1.128-1.14 6.252 6.252 0 00-1.585-.693c-.59-.169-1.197-.315-1.82-.437a75.177 75.177 0 01-1.81-.387 7.338 7.338 0 01-1.584-.54 3.107 3.107 0 01-1.119-.885 2.26 2.26 0 01-.426-1.425 2.715 2.715 0 01.386-1.497 2.96 2.96 0 01.986-.959 4.135 4.135 0 011.3-.499c.432-.091.87-.139 1.312-.143a6.88 6.88 0 011.84.235 4.211 4.211 0 011.453.702c.404.31.734.707.965 1.16.248.508.384 1.064.396 1.63h.895v.002zm6.239-.08h-2.27v-3.258h-.771v3.258h-1.931v.672h1.93v7.31c-.046.477.028.959.215 1.4.147.317.383.582.68.764.301.176.638.28.986.306.382.034.766.037 1.149.01v-.672a7.193 7.193 0 01-.966-.02 1.538 1.538 0 01-.711-.235 1.13 1.13 0 01-.438-.56 2.821 2.821 0 01-.142-.997v-7.31h2.276v-.671l-.007.002zm.644 7.349c.194.634.508 1.225.925 1.74.41.499.923.902 1.504 1.181 1.307.583 2.8.583 4.106 0a4.434 4.434 0 001.504-1.18 5.159 5.159 0 00.926-1.741c.212-.686.319-1.4.315-2.117a6.94 6.94 0 00-.315-2.108 5.296 5.296 0 00-.926-1.74 4.392 4.392 0 00-1.504-1.192 5.037 5.037 0 00-4.106 0 4.401 4.401 0 00-1.504 1.192 5.312 5.312 0 00-.925 1.74 6.878 6.878 0 00-.315 2.108 6.983 6.983 0 00.319 2.118l-.004-.001zm.722-3.92a4.858 4.858 0 01.773-1.536c.335-.446.765-.811 1.26-1.07a3.952 3.952 0 013.455 0c.494.259.925.624 1.26 1.07.346.463.608.983.773 1.537a6.283 6.283 0 010 3.604 4.903 4.903 0 01-.773 1.537 3.745 3.745 0 01-1.26 1.069 3.952 3.952 0 01-3.455 0 3.735 3.735 0 01-1.26-1.07 4.855 4.855 0 01-.773-1.536 6.264 6.264 0 01.004-3.604h-.004zm11.14-3.43h-.772v10.465h.772v-5.72c.008-.342.042-.683.102-1.019a3.93 3.93 0 01.221-.774c.091-.224.211-.437.356-.631.155-.206.321-.403.498-.59a3.388 3.388 0 011.494-.897c.452-.129.925-.17 1.392-.121v-.774a4.857 4.857 0 00-1.372.152 4.527 4.527 0 00-1.199.5 3.646 3.646 0 00-.915.773 2.553 2.553 0 00-.516.96h-.061V25.59zm13.618 5.335c0-.054 0-.126.011-.214.01-.089.009-.166.009-.234a6.486 6.486 0 00-.295-1.985 4.932 4.932 0 00-.864-1.63 4.066 4.066 0 00-1.412-1.106 4.419 4.419 0 00-1.942-.407 4.47 4.47 0 00-2.083.458c-.576.293-1.08.71-1.476 1.222a5.304 5.304 0 00-.885 1.77 7.47 7.47 0 00-.295 2.107c-.005.72.09 1.436.285 2.128a4.84 4.84 0 00.864 1.71c.389.485.882.874 1.443 1.14.634.291 1.326.434 2.022.418a4.53 4.53 0 003.039-.977 4.69 4.69 0 001.495-2.81h-.773a4.323 4.323 0 01-1.263 2.29 3.586 3.586 0 01-2.487.825 3.67 3.67 0 01-1.681-.368 3.426 3.426 0 01-1.203-.998 4.497 4.497 0 01-.724-1.466 6.207 6.207 0 01-.245-1.75v-.123h8.46zm-8.435-.672a6.352 6.352 0 01.329-1.59c.164-.495.42-.954.754-1.354.332-.391.741-.71 1.202-.937a3.66 3.66 0 011.651-.356c.54-.01 1.075.109 1.56.347.447.224.842.54 1.161.925.325.398.57.854.723 1.345.166.524.262 1.068.286 1.618h-7.663l-.003.002zM28.004 15.206c3.229 0 5.294 3.098 5.294 3.098a6.406 6.406 0 00-3.15 5.386 5.975 5.975 0 003.957 5.646s-3.124 7.357-6.63 7.357c-1.972 0-2.105-1.127-4.722-1.127-2.276 0-3.044 1.127-4.777 1.127-3.308 0-7.582-7.171-7.582-13.003 0-6.059 4.326-8.484 7.04-8.484 2.381 0 3.374 1.391 5.293 1.391 1.611 0 2.882-1.391 5.277-1.391zm-.556-6.178c.476 2.97-2.236 6.64-5.479 6.522-.476-3.78 3.019-6.323 5.48-6.522z"/><defs><linearGradient id="aapaint0_linear_3501_9654" x1="74.931" y1="1" x2="74.931" y2="45.262" gradientUnits="userSpaceOnUse"><stop stop-color="#A7ACB1"/><stop offset=".099" stop-color="#BABFC3"/></linearGradient></defs></svg><svg viewBox="0 0 31 13" id="arrow" xmlns="http://www.w3.org/2000/svg"><path fill-rule="evenodd" clip-rule="evenodd" d="M23 1.74L24.4.277l6 6.276-6 6.276-1.4-1.464 3.6-3.766H0V5.506h26.6L23 1.741z"/></svg><svg viewBox="0 0 54 54" id="camera" xmlns="http://www.w3.org/2000/svg"><path d="M47.648 15.794l-6.687 3.85v-7.94c0-1.845-1.5-3.345-3.344-3.345H6.687a3.347 3.347 0 00-3.343 3.344v30.094c0 1.844 1.5 3.344 3.344 3.344h30.93c1.843 0 3.343-1.5 3.343-3.344v-7.941l6.687 3.85c1.113.643 2.508-.162 2.508-1.442V17.241c0-1.285-1.395-2.09-2.508-1.447zM37.2 41.379H7.105V12.12H37.2V41.38zm9.196-8.725l-5.434-3.125v-5.553l5.434-3.13v11.808zM10.867 18.809h5.852a.42.42 0 00.418-.418v-2.508a.42.42 0 00-.418-.418h-5.852a.42.42 0 00-.418.418v2.508c0 .23.188.418.418.418z"/></svg><svg viewBox="0 0 16 13" id="car" xmlns="http://www.w3.org/2000/svg"><path d="M15.625 3.999h-1.871l-.52-1.301A3.482 3.482 0 009.984.497H6.016c-1.44 0-2.715.864-3.25 2.2L2.246 4H.376a.375.375 0 00-.365.466l.188.75a.375.375 0 00.364.284h.627C.77 5.866.5 6.4.5 7v1.501c0 .504.192.96.5 1.311v1.69a1 1 0 001 1.001h1a1 1 0 001-1v-1h8v1a1 1 0 001 1h1a1 1 0 001-1v-1.69c.307-.353.5-.808.5-1.312v-1.5c0-.602-.27-1.135-.69-1.502h.627a.375.375 0 00.364-.284l.188-.75a.375.375 0 00-.364-.466zM4.623 3.44a1.5 1.5 0 011.393-.943h3.968a1.5 1.5 0 011.393.943L12 5H4l.623-1.558zM3 8.495c-.6 0-1-.4-1-.998S2.4 6.5 3 6.5s1.5.898 1.5 1.496c0 .599-.9.499-1.5.499zm10 0c-.6 0-1.5.1-1.5-.499 0-.598.9-1.496 1.5-1.496s1 .399 1 .997c0 .599-.4.998-1 .998z"/></svg><svg id="checkmark" version="1.1" viewBox="0 0 512 512" xml:space="preserve" xmlns="http://www.w3.org/2000/svg"><style>.aest0{fill:#231f20}</style><path class="aest0" d="M235.1 386.3c-5.7 0-11.1-2.4-14.9-6.6l-104.1-116c-7.4-8.2-6.7-20.9 1.5-28.2 8.2-7.4 20.9-6.7 28.2 1.5l86.8 96.8 131.6-199.1c6.1-9.2 18.5-11.7 27.7-5.7 9.2 6.1 11.7 18.5 5.7 27.7L251.8 377.4c-3.4 5.2-9 8.5-15.2 8.9h-1.5z"/></svg><svg viewBox="0 0 24 24" id="clock" xmlns="http://www.w3.org/2000/svg"><path d="M12 1.5C6.202 1.5 1.5 6.202 1.5 12S6.202 22.5 12 22.5 22.5 17.798 22.5 12 17.798 1.5 12 1.5zm0 19.219A8.72 8.72 0 013.281 12 8.72 8.72 0 0112 3.281 8.72 8.72 0 0120.719 12 8.72 8.72 0 0112 20.719z"/><path d="M16.095 14.967l-3.343-2.416V6.75a.188.188 0 00-.187-.188h-1.127a.188.188 0 00-.188.188v6.455c0 .06.028.117.077.152l3.877 2.827a.19.19 0 00.262-.04l.67-.914a.187.187 0 00-.041-.263z"/></svg><svg viewBox="0 0 24 24" id="docs" xmlns="http://www.w3.org/2000/svg"><path d="M8 10a1 1 0 100 2h8a1 1 0 100-2H8z"/><path fill-rule="evenodd" clip-rule="evenodd" d="M6 3a3 3 0 00-3 3v12a3 3 0 003 3h12a3 3 0 003-3V6a3 3 0 00-3-3H6zM5 18V8h14v10a1 1 0 01-1 1H6a1 1 0 01-1-1z"/></svg><svg viewBox="0 0 26 26" id="email" xmlns="http://www.w3.org/2000/svg"><path d="M21.973 16.11l-4.21-4.95 3.74-2.134a.762.762 0 00-.755-1.323L13 12.123l-7.747-4.42a.762.762 0 10-.755 1.323l3.74 2.134-4.21 4.95a.762.762 0 101.16.987l4.396-5.17 3.039 1.735a.762.762 0 00.755 0l3.038-1.734 4.397 5.169a.762.762 0 001.16-.987z"/><path d="M23.715 4.113H2.285A2.288 2.288 0 000 6.398v13.204a2.288 2.288 0 002.285 2.285h21.43A2.288 2.288 0 0026 19.602V6.398a2.288 2.288 0 00-2.285-2.285zm.762 15.489c0 .42-.342.761-.762.761H2.285a.763.763 0 01-.762-.761V6.398c0-.42.342-.761.762-.761h21.43c.42 0 .762.341.762.761v13.204z"/></svg><svg viewBox="0 0 36 35" id="facebook" xmlns="http://www.w3.org/2000/svg"><path d="M18.08 0C8.333 0 .433 7.868.433 17.573c0 8.705 6.361 15.914 14.703 17.31V21.239H10.88v-4.91h4.256v-3.62c0-4.2 2.576-6.489 6.34-6.489 1.802 0 3.35.134 3.8.193v4.39l-2.61.002c-2.046 0-2.44.968-2.44 2.389v3.133h4.882l-.637 4.91h-4.245V35c8.73-1.058 15.499-8.45 15.499-17.432 0-9.7-7.9-17.568-17.646-17.568z"/></svg><svg viewBox="0 0 25 25" id="fb" xmlns="http://www.w3.org/2000/svg"><path fill-rule="evenodd" clip-rule="evenodd" d="M12.546 20H4.883A.883.883 0 014 19.117V4.883C4 4.395 4.395 4 4.883 4h14.234c.488 0 .883.395.883.883v14.234a.883.883 0 01-.883.883H15.04v-6.196h2.08l.31-2.415h-2.39V9.848c0-.7.194-1.176 1.196-1.176h1.28v-2.16c-.222-.03-.981-.095-1.864-.095-1.844 0-3.106 1.125-3.106 3.191v1.781h-2.085v2.415h2.085V20z"/></svg><svg viewBox="0 0 35 35" id="gmail" xmlns="http://www.w3.org/2000/svg"><path d="M18.164 12.056c0-2.426-1.446-6.199-4.235-6.199-.876 0-1.815.438-2.354 1.112-.573.709-.739 1.615-.739 2.494 0 2.256 1.31 5.994 4.202 5.994.84 0 1.745-.402 2.285-.941.773-.778.84-1.853.84-2.46zM16.348 20.916c-.268-.034-.436-.034-.772-.034-.304 0-2.12.066-3.53.54-.74.269-2.89 1.078-2.89 3.47 0 2.392 2.32 4.112 5.916 4.112 3.227 0 4.942-1.554 4.942-3.64 0-1.723-1.11-2.629-3.666-4.448z"/><path d="M17.5 0C7.835 0 0 7.835 0 17.5S7.835 35 17.5 35 35 27.165 35 17.5 27.165 0 17.5 0zm-4.077 30.415c-4.875 0-7.227-2.323-7.227-4.818 0-1.212.604-2.928 2.588-4.108 2.083-1.28 4.908-1.448 6.422-1.552-.472-.606-1.008-1.246-1.008-2.29 0-.572.168-.909.334-1.313-.37.034-.738.067-1.075.067-3.562 0-5.579-2.663-5.579-5.29 0-1.548.705-3.267 2.15-4.514 1.917-1.583 4.537-2.013 6.354-2.013h6.623L20.82 5.958h-2.082c.772.64 2.384 1.987 2.384 4.548 0 2.491-1.41 3.673-2.822 4.784-.437.437-.942.909-.942 1.65 0 .74.505 1.144.874 1.45l1.211.94c1.48 1.246 2.824 2.392 2.824 4.719 0 3.168-3.062 6.366-8.843 6.366zM27.93 17.088v3.389h-1.663v-3.389h-3.364v-1.682h3.364V12.04h1.663v3.367h3.38v1.682h-3.38z"/></svg><svg viewBox="0 0 150 46" id="googleplay" xmlns="http://www.w3.org/2000/svg"><rect x="1.111" y=".631" width="148.279" height="45" rx="6.27"/><path fill-rule="evenodd" clip-rule="evenodd" d="M114.036 36.582h-1.129V24.14h1.129v12.442zm9.035-1.131v-5.656s-.314-2.32-3.737-2.32c-3.424 0-3.521 2.509-3.521 2.509h1.085s-.053-1.715 2.41-1.715c2.462 0 2.633 1.526 2.633 1.526v1.131h-2.258c-2.872 0-4.24 1.612-4.24 3.157 0 1.546.86 2.643 2.965 2.643a5.739 5.739 0 003.533-1.275v1.13h1.13v-1.13zm-1.13-2.263c0 1.785-2.356 2.68-3.441 2.68s-1.985-.517-1.985-1.705c0-1.189 1.447-2.106 3.172-2.106h2.258v1.131h-.004zm2.259-5.655h1.13l2.88 7.678 2.765-7.678h1.13s-3 10.386-3.388 11.31c-.388.926-1.998 1.371-3.136 1.371a2.356 2.356 0 01-1.023-.299l.283-.793c.238.105.498.154.758.142.503 0 1.376-1.164 1.376-1.164l.636-1.515-3.411-9.052zm-16.556-.058a3.073 3.073 0 00-2.642 1.189v-1.131h-1.129v12.442h1.129v-4.524c.035.057.484 1.275 2.668 1.275 2.224 0 3.944-1.427 3.944-4.696 0-3.269-2.061-4.555-3.97-4.555zm-.156 8.432c-1.824 0-2.448-2.661-2.483-2.719v-2.262c.035-.048.839-2.604 2.616-2.604 1.614 0 2.964 1.638 2.964 3.779 0 2.14-1.247 3.806-3.097 3.806zM56.231 25.142s-1.468-1.493-5.142-1.493a6.798 6.798 0 00-7.072 6.678c0 2.839 1.965 6.423 6.851 6.423a20.349 20.349 0 005.363-.927v-2.202c0-1.082 1.345-1.564 1.345-1.564H53.06l-1.383.873a16.53 16.53 0 012.7-.164v2.73a4.795 4.795 0 01-2.185.49A6.414 6.414 0 0145.91 29.6c0-3.72 2.663-5.295 4.977-5.295a4.82 4.82 0 013.62 1.71l-.423.692.68-.182 1.468-1.383zm6.219 2.368a4.6 4.6 0 00-4.758 4.673 4.453 4.453 0 004.467 4.402c2.855 0 4.855-1.9 4.855-4.574a4.357 4.357 0 00-4.567-4.501h.003zm.194 8.493c-2.164 0-3.185-3.335-3.185-5.022 0-1.687 1.146-2.889 2.467-2.889 1.884 0 3.184 2.219 3.184 4.81-.003.891-.305 3.101-2.469 3.101h.003zm10.008-8.489a4.6 4.6 0 00-4.756 4.671 4.45 4.45 0 004.465 4.4c2.854 0 4.853-1.899 4.853-4.574a4.352 4.352 0 00-4.565-4.497h.003zm.194 8.49c-2.162 0-3.183-3.334-3.183-5.017 0-1.682 1.145-2.887 2.465-2.887 1.883 0 3.184 2.218 3.184 4.806-.003.888-.306 3.098-2.47 3.098h.004zm11.897-.062c-.936-.645-1.119-.953-1.119-1.233 0-.28.01-.505.675-1.136a3.212 3.212 0 001.274-2.485 3.108 3.108 0 00-1.196-2.562l1.138-.038 1.138-.674h-4.437a3.865 3.865 0 00-3.993 3.64c0 1.328 1.128 2.918 3.356 2.918.13.002.26-.014.386-.048a1.8 1.8 0 00-.135.684c.044.451.237.875.55 1.204 0 0-5.141.005-5.141 3.294 0 1.988 2.247 2.734 4.09 2.734 1.841 0 4.996-.991 4.996-3.524a3.32 3.32 0 00-1.585-2.774h.003zm-2.44-2.148c-1.346 0-2.417-2.008-2.417-3.221 0-1.214.608-2.08 1.678-2.08 1.07 0 2.345 1.227 2.345 3.467-.003.78-.264 1.834-1.61 1.834h.004zm-.101 7.628c-.623 0-3.27-.245-3.27-2.34 0-2.096 3.052-2.287 3.406-2.287.22 0 .441.017.659.05.94.831 1.982 1.243 1.982 2.543-.003 1.86-2.158 2.038-2.78 2.038l.003-.004zm4.735-17.283l.757-1.145 2.631.014c-.65.346-1.112.649-1.13 2.262-.016 1.614 0 9.05 0 9.05a1.866 1.866 0 001.292 1.516c.217-.01.435.018.641.085l-.803.664h-3.388s1.123-.7 1.13-1.13V24.138h-1.13zm11.803 5.73a3.178 3.178 0 00-3.315-2.394 4.248 4.248 0 00-4.328 4.438c0 2.2 1.307 4.672 4.562 4.672a3.971 3.971 0 003.315-1.696 5.149 5.149 0 01-2.301.642c-1.813 0-3.919-1.908-3.919-4.71 0-1.89 1.319-2.649 2.145-2.649a1.633 1.633 0 011.814 1.753c-.148.263-3.9 1.79-3.9 1.79l1.501-.078 4.427-1.768z"/><path d="M50.3 10.21v.266c0 .64-.228 1.18-.685 1.623-.458.438-1.07.656-1.837.656-.782 0-1.429-.258-1.94-.774-.512-.517-.767-1.149-.767-1.896 0-.748.255-1.38.767-1.896.511-.516 1.158-.775 1.94-.775.477 0 .915.116 1.313.347.398.231.706.539.922.922l-.457.266a1.834 1.834 0 00-.723-.753 2.052 2.052 0 00-1.055-.28c-.644 0-1.17.21-1.579.627-.408.418-.612.932-.612 1.542s.204 1.124.612 1.542c.408.418.935.627 1.579.627.58 0 1.045-.145 1.394-.435.35-.296.549-.67.598-1.122h-2.051v-.487H50.3zm2.517-1.32c.546 0 .986.194 1.32.583a1.991 1.991 0 01.495 1.593h-3.239c.05.374.207.671.472.893.27.216.603.324.996.324.28 0 .521-.056.723-.17.207-.117.361-.27.465-.457l.428.251c-.163.26-.384.467-.664.62-.28.152-.6.228-.96.228-.58 0-1.052-.182-1.416-.546-.364-.363-.546-.826-.546-1.386 0-.551.18-1.011.539-1.38.359-.369.821-.553 1.387-.553zm0 .472c-.384 0-.706.116-.967.347a1.387 1.387 0 00-.457.885h2.752c-.05-.389-.2-.691-.45-.907a1.302 1.302 0 00-.878-.325zm4.45.088h-1.062v2.236c0 .201.04.346.118.435.08.084.197.128.355.133.157 0 .354-.005.59-.015v.428c-.517.079-.905.042-1.166-.11-.256-.153-.383-.443-.383-.871V9.45h-.775v-.472h.774v-.885l.487-.147v1.032h1.063v.472zm3.15-1.357a.342.342 0 01-.25.103.342.342 0 01-.251-.103.342.342 0 01-.103-.25c0-.1.034-.183.103-.252a.342.342 0 01.25-.103c.1 0 .183.035.252.103a.342.342 0 01.103.251.342.342 0 01-.103.251zm-.494 4.574V8.978h.487v3.689h-.487zm3.475-3.217h-1.062v2.236c0 .201.04.346.118.435.079.084.197.128.354.133.158 0 .354-.005.59-.015v.428c-.516.079-.905.042-1.165-.11-.256-.153-.384-.443-.384-.871V9.45h-.774v-.472h.774v-.885l.487-.147v1.032h1.062v.472zm5.747 2.752a1.879 1.879 0 01-1.372.553 1.904 1.904 0 01-1.94-1.932c0-.546.187-1.004.56-1.373a1.89 1.89 0 011.38-.56c.541 0 .998.187 1.372.56.379.37.568.827.568 1.373 0 .545-.19 1.005-.568 1.38zm-2.405-.34c.28.281.625.421 1.033.421.408 0 .752-.14 1.033-.42.28-.285.42-.632.42-1.04 0-.409-.14-.753-.42-1.033a1.392 1.392 0 00-1.033-.428c-.408 0-.752.143-1.033.428-.28.28-.42.624-.42 1.033 0 .408.14.755.42 1.04zm5.514-2.972c.448 0 .8.138 1.055.413.26.27.391.637.391 1.1v2.264h-.487v-2.265c0-.33-.088-.585-.265-.767-.172-.182-.418-.273-.738-.273-.354 0-.642.113-.863.34-.221.22-.332.565-.332 1.032v1.933h-.487V8.978h.487v.576c.275-.443.688-.664 1.24-.664z"/><path fill-rule="evenodd" clip-rule="evenodd" d="M36.404 24.337l-5.134 2.865-4.115-4.095 4.115-4.095 5.134 2.864a1.328 1.328 0 010 2.461zm-9.916-1.896L12.975 8.994c.396.07.777.213 1.122.422 1.662.935 10.293 5.754 16.318 9.117l-3.927 3.908zM11.912 36.945a2.17 2.17 0 01-.577-1.328V10.59c.035-.494.239-.961.577-1.324l13.906 13.838-13.906 13.84zm14.576-13.172l3.927 3.91C24.39 31.046 15.76 35.865 14.097 36.8a3.282 3.282 0 01-1.122.422l13.513-13.449z"/></svg><svg viewBox="0 0 50 50" id="heart" xmlns="http://www.w3.org/2000/svg"><path fill-rule="evenodd" clip-rule="evenodd" d="M33.64 8.24c-6.15 0-9.18 6.061-9.18 6.061S21.43 8.24 15.281 8.24c-4.997 0-8.954 4.18-9.005 9.168-.104 10.355 8.214 17.718 17.332 23.907.514.35 1.19.35 1.705 0 9.116-6.189 17.434-13.552 17.331-23.907-.051-4.988-4.008-9.168-9.005-9.168z"/></svg><svg viewBox="0 0 25 25" id="insta" xmlns="http://www.w3.org/2000/svg"><path fill-rule="evenodd" clip-rule="evenodd" d="M12 4c-2.173 0-2.445.01-3.298.048-.852.039-1.433.174-1.942.372a3.921 3.921 0 00-1.417.923c-.445.444-.719.89-.923 1.417-.198.509-.333 1.09-.372 1.942C4.01 9.555 4 9.827 4 12s.01 2.445.048 3.298c.039.852.174 1.433.372 1.942.204.526.478.973.923 1.417.444.445.89.719 1.417.923.509.198 1.09.333 1.942.372C9.555 19.99 9.827 20 12 20s2.445-.01 3.298-.048c.852-.039 1.433-.174 1.942-.372a3.922 3.922 0 001.417-.923c.445-.445.719-.89.923-1.417.198-.509.333-1.09.372-1.942.039-.853.048-1.125.048-3.298s-.01-2.445-.048-3.298c-.039-.852-.174-1.433-.372-1.942a3.922 3.922 0 00-.923-1.417 3.921 3.921 0 00-1.417-.923c-.509-.198-1.09-.333-1.942-.372C14.445 4.01 14.173 4 12 4zm0 1.441c2.136 0 2.39.009 3.233.047.78.036 1.203.166 1.485.276.374.145.64.318.92.598.28.28.453.546.598.92.11.282.24.705.276 1.485.038.844.047 1.097.047 3.233s-.009 2.39-.047 3.233c-.036.78-.166 1.203-.276 1.485-.145.374-.318.64-.598.92-.28.28-.546.453-.92.598-.282.11-.705.24-1.485.276-.844.038-1.097.047-3.233.047s-2.39-.009-3.233-.047c-.78-.036-1.203-.166-1.485-.276a2.479 2.479 0 01-.92-.598 2.478 2.478 0 01-.598-.92c-.11-.282-.24-.705-.276-1.485-.038-.844-.047-1.097-.047-3.233s.009-2.39.047-3.233c.036-.78.166-1.203.276-1.485.145-.374.318-.64.598-.92.28-.28.546-.453.92-.598.282-.11.705-.24 1.485-.276.844-.038 1.097-.047 3.233-.047zM7.892 12a4.108 4.108 0 118.216 0 4.108 4.108 0 01-8.216 0zM12 14.667a2.667 2.667 0 110-5.334 2.667 2.667 0 010 5.334zm4.27-5.977a.96.96 0 100-1.92.96.96 0 000 1.92z"/></svg><svg viewBox="0 0 30 30" id="location" xmlns="http://www.w3.org/2000/svg"><g clip-path="url(#aoclip0_34_1303)"><path d="M25.872 7.861c-1.07-3.455-3.848-6.256-7.25-7.31C14.997-.571 11.22.038 8.256 2.222A11.611 11.611 0 004.85 6.214a11.514 11.514 0 00-1.278 5.266c0 2.493.789 4.862 2.28 6.851L15.002 30l9.137-11.654.011-.015c2.233-2.977 2.86-6.793 1.723-10.47zm-3.124 9.408L15 27.151 7.254 17.27a9.588 9.588 0 01-1.923-5.79A9.784 9.784 0 019.3 3.638c2.508-1.849 5.716-2.362 8.8-1.406 2.857.884 5.19 3.24 6.091 6.15.968 3.13.442 6.368-1.444 8.888z"/><path d="M15.002 5.326a6.16 6.16 0 00-6.154 6.154A6.16 6.16 0 0015 17.633a6.16 6.16 0 006.154-6.153 6.16 6.16 0 00-6.154-6.154zm0 10.55a4.4 4.4 0 01-4.396-4.396 4.4 4.4 0 014.396-4.396 4.4 4.4 0 014.395 4.396 4.4 4.4 0 01-4.395 4.395z"/></g><defs><clipPath id="aoclip0_34_1303"><path d="M0 0h30v30H0z"/></clipPath></defs></svg><svg viewBox="0 0 24 24" id="manage" xmlns="http://www.w3.org/2000/svg"><path d="M21.687 11.466l-2.125 1.062-2.75-5.266 2.146-1.073a.687.687 0 01.917.296l2.114 4.048a.687.687 0 01-.302.933zM4.438 12.436l-2.124-1.062a.687.687 0 01-.302-.933l2.113-4.048a.687.687 0 01.917-.296l2.146 1.072-2.75 5.267z"/><path d="M19.563 12.528l-1.375 1.609-3.163 3.162a.688.688 0 01-.653.18l-4.98-1.244a.685.685 0 01-.257-.126l-4.697-3.673"/><path d="M18.188 14.137l-3.781-2.75-1.1.825a2.75 2.75 0 01-3.3 0l-.466-.35a.687.687 0 01-.074-1.036l3.363-3.363a.687.687 0 01.486-.201h3.497"/><path d="M7.237 7.17l4.41-1.286a.688.688 0 01.476.034l2.971 1.344M10.625 19.293l-2.59-.648a.689.689 0 01-.284-.148l-1.939-1.684"/></svg><svg viewBox="0 0 28 28" id="mark-yellow" xmlns="http://www.w3.org/2000/svg"><g clip-path="url(#aqclip0_3707_1908)"><path d="M22.633 6.144L24.188 7.7 10.033 21.856 3.81 15.633l1.556-1.555 4.667 4.666 12.6-12.6zm0-3.144l-12.6 12.6-4.667-4.667-4.7 4.7L10.033 25l17.3-17.3-4.7-4.7z"/></g><defs><clipPath id="aqclip0_3707_1908"><path transform="translate(.666 .667)" d="M0 0h26.667v26.667H0z"/></clipPath></defs></svg><svg viewBox="0 0 14 13" id="motor" xmlns="http://www.w3.org/2000/svg"><path d="M3.75.824v1.42h1.875v1.418H3.75L2.5 5.082V7.21H1.25V5.08H0v5.676h1.25V8.628H2.5v2.129h1.875l1.25 1.419h5V9.338h1.25v2.128h1.875V4.372h-1.875V6.5h-1.25V3.662h-3.75V2.243H8.75V.824h-5z"/></svg><svg viewBox="0 0 53 53" id="plane" xmlns="http://www.w3.org/2000/svg"><path d="M42.298 20.717c-.278 0-1.475.009-1.907.032l-5.9.155L20.882 4.375h-6.415l7.619 16.813-9.94.147-4.522-5.52H2.302l2.105 9.62c.015.054.034.109.054.162a.027.027 0 010 .015c-.02.053-.039.107-.054.161l-2.134 9.653h5.29l4.641-5.618 9.885.221-7.622 16.836h6.435l13.584-16.52 5.901.156c.438.024 1.634.032 1.906.032 2.487 0 4.522-.341 6.048-1.015 2.588-1.14 2.974-2.932 2.974-3.898 0-3.07-3.37-4.903-9.017-4.903z"/></svg><svg viewBox="0 0 24 24" id="price" xmlns="http://www.w3.org/2000/svg"><path d="M21 5.25H3a.75.75 0 00-.75.75v12c0 .414.336.75.75.75h18a.75.75 0 00.75-.75V6a.75.75 0 00-.75-.75zM15.749 15.75h3M11.249 15.75h1.5M2.249 9.08h19.5"/></svg><svg viewBox="0 0 54 54" id="question" xmlns="http://www.w3.org/2000/svg"><path fill-rule="evenodd" clip-rule="evenodd" d="M26.625 8.875c6.117 0 11.094 4.977 11.094 11.094 0 5.356-3.819 9.84-8.875 10.867v2.445a2.217 2.217 0 01-2.219 2.219 2.217 2.217 0 01-2.219-2.219v-4.437c0-1.227.992-2.219 2.219-2.219a6.664 6.664 0 006.656-6.656 6.664 6.664 0 00-6.656-6.657 6.664 6.664 0 00-6.656 6.657 2.217 2.217 0 01-2.219 2.218 2.217 2.217 0 01-2.219-2.218c0-6.117 4.977-11.094 11.094-11.094zm-2.219 33.281c0-1.227.992-2.218 2.219-2.218 1.227 0 2.219.991 2.219 2.218a2.217 2.217 0 01-2.219 2.219 2.217 2.217 0 01-2.219-2.219z"/></svg><svg viewBox="0 0 21 20" id="rate" xmlns="http://www.w3.org/2000/svg"><path d="M17.866 6.896l-4.973-.721L10.67 1.68a.63.63 0 00-1.124 0L7.323 6.175l-4.973.72a.626.626 0 00-.347 1.067l3.598 3.498-.85 4.94a.622.622 0 00.572.728.627.627 0 00.337-.07l4.448-2.332 4.448 2.332a.624.624 0 00.909-.658l-.85-4.94 3.598-3.498a.624.624 0 00-.347-1.066z"/></svg><svg viewBox="0 0 24 24" id="renttime" xmlns="http://www.w3.org/2000/svg"><path d="M11 17c0 .55.45 1 1 1s1-.45 1-1-.45-1-1-1-1 .45-1 1zm0-14v4h2V5.08c3.39.49 6 3.39 6 6.92 0 3.87-3.13 7-7 7s-7-3.13-7-7c0-1.68.59-3.22 1.58-4.42L12 13l1.41-1.41-6.8-6.8v.02C4.42 6.45 3 9.05 3 12c0 4.97 4.02 9 9 9a9 9 0 000-18h-1zm7 9c0-.55-.45-1-1-1s-1 .45-1 1 .45 1 1 1 1-.45 1-1zM6 12c0 .55.45 1 1 1s1-.45 1-1-.45-1-1-1-1 .45-1 1z"/></svg><svg viewBox="0 0 19 23" id="viber" xmlns="http://www.w3.org/2000/svg"><path d="M5.528 15.277l.054-.2-.103-.18a7.03 7.03 0 01-.927-3.45c0-3.836 3.12-6.947 6.974-6.947 1.853 0 3.608.728 4.926 2.042 1.311 1.306 1.997 3.053 2.048 4.86-.004 3.834-3.122 6.942-6.974 6.942a7.142 7.142 0 01-3.322-.829l-.172-.09-.187.05-3.136.822.819-3.02zm7.015.125l.032.013.032.008c.487.12.972.122 1.348.06.283-.041.625-.199.903-.381.27-.177.606-.459.742-.822.095-.252.145-.493.162-.702a1.484 1.484 0 00-.05-.57l-.038-.112-.084-.084a1.045 1.045 0 00-.235-.167 6.67 6.67 0 00-.239-.123c-.13-.08-.409-.223-.65-.343-.139-.07-.28-.138-.397-.193a3.293 3.293 0 00-.295-.127l-.013-.005c-.064-.022-.236-.08-.418-.064a.697.697 0 00-.355.134.8.8 0 00-.236.29 2.357 2.357 0 01-.227.31c-.066.08-.13.154-.18.208a10.81 10.81 0 00-.054-.025c-.27-.123-.71-.324-1.27-.801a4.978 4.978 0 01-.85-1.013c.006-.009.012-.017.018-.023l.046-.06.02-.024c.045-.06.08-.102.108-.13.163-.162.246-.327.298-.432l.005-.01a.83.83 0 000-.761l-.036-.073-.007-.007a20.012 20.012 0 01-.3-.718 34.415 34.415 0 00-.22-.53c-.1-.235-.246-.444-.48-.55-.203-.092-.455-.065-.397-.065H8.844c-.164 0-.598-.001-.907.408l-.028.034c-.071.084-.25.295-.382.532a2.618 2.618 0 00-.317 1.297c0 .582.208 1.12.409 1.507.174.334.367.601.48.729.192.291 1.437 2.147 3.375 2.959.316.156.633.269.859.35.084.03.156.055.21.076zm-.282-2.58l.002-.002a.008.008 0 01-.002.002z"/></svg><svg viewBox="0 0 21 25" id="vk" xmlns="http://www.w3.org/2000/svg"><mask id="aya"><path d="M20.673 16.876c0-.083-.083-.083-.083-.166-.332-.664-1.08-1.495-2.076-2.408-.498-.415-.747-.747-.913-.913-.25-.332-.25-.581-.166-.913.083-.25.415-.664.996-1.412.332-.415.498-.664.747-.913 1.246-1.66 1.827-2.74 1.66-3.238l-.082-.083c-.083-.083-.166-.166-.332-.166-.166-.083-.415-.083-.665 0H16.023l-.083.083c-.083.083-.083.083-.083.166-.332.913-.747 1.66-1.162 2.49-.249.416-.498.831-.747 1.163-.25.332-.415.581-.581.747-.166.166-.332.25-.415.416-.084.083-.25.166-.25.083-.082 0-.165 0-.165-.083l-.25-.25c-.083-.082-.083-.249-.166-.415v-.415-.498-.498-.913-.747-.582-.498c0-.083-.083-.249-.083-.332l-.249-.249c-.083-.083-.249-.083-.332-.166A7.447 7.447 0 009.963 6c-1.329 0-2.242.083-2.574.25-.166.082-.332.165-.415.331-.166.166-.166.25-.083.25.415.082.747.248.913.497l.083.166c.083.083.083.25.166.499s.083.498.083.83v1.328c0 .415-.083.664-.083.913 0 .25-.083.415-.166.498-.083.167-.083.25-.166.25 0 0 0 .083-.083.083s-.166.083-.332.083c-.083 0-.249-.083-.332-.166a1 1 0 01-.415-.415c-.166-.167-.332-.416-.498-.748-.166-.332-.415-.664-.581-1.162l-.167-.332c-.083-.166-.249-.498-.415-.913-.166-.416-.332-.748-.498-1.163a1.146 1.146 0 00-.249-.332h-.083s-.083-.083-.166-.083-.166-.083-.249-.083H.664c-.332 0-.498.083-.581.166L0 6.83v.166c0 .083 0 .166.083.332.415.997.913 1.993 1.411 2.99.499.912.997 1.743 1.329 2.324.415.581.747 1.162 1.162 1.66.415.498.664.83.747.997l.332.332.25.249c.166.166.415.415.747.664.332.249.747.498 1.162.747.415.25.913.415 1.411.581.582.166 1.08.25 1.578.166h1.245a.754.754 0 00.581-.249l.083-.083c0-.083.083-.083.083-.166v-.332c0-.332 0-.581.083-.83.083-.25.083-.415.166-.581.084-.166.167-.25.25-.332l.166-.166h.083c.166-.083.415 0 .58.166.25.166.499.415.665.664.166.249.415.498.747.83.332.332.581.581.747.664l.25.166c.165.083.332.166.58.25.25.082.416.082.582.082l2.822-.083c.25 0 .499-.083.665-.166.166-.083.249-.166.249-.332v-.332c-.166-.166-.166-.249-.166-.332z"/></mask><path d="M20.673 16.876c0-.083-.083-.083-.083-.166-.332-.664-1.08-1.495-2.076-2.408-.498-.415-.747-.747-.913-.913-.25-.332-.25-.581-.166-.913.083-.25.415-.664.996-1.412.332-.415.498-.664.747-.913 1.246-1.66 1.827-2.74 1.66-3.238l-.082-.083c-.083-.083-.166-.166-.332-.166-.166-.083-.415-.083-.665 0H16.023l-.083.083c-.083.083-.083.083-.083.166-.332.913-.747 1.66-1.162 2.49-.249.416-.498.831-.747 1.163-.25.332-.415.581-.581.747-.166.166-.332.25-.415.416-.084.083-.25.166-.25.083-.082 0-.165 0-.165-.083l-.25-.25c-.083-.082-.083-.249-.166-.415v-.415-.498-.498-.913-.747-.582-.498c0-.083-.083-.249-.083-.332l-.249-.249c-.083-.083-.249-.083-.332-.166A7.447 7.447 0 009.963 6c-1.329 0-2.242.083-2.574.25-.166.082-.332.165-.415.331-.166.166-.166.25-.083.25.415.082.747.248.913.497l.083.166c.083.083.083.25.166.499s.083.498.083.83v1.328c0 .415-.083.664-.083.913 0 .25-.083.415-.166.498-.083.167-.083.25-.166.25 0 0 0 .083-.083.083s-.166.083-.332.083c-.083 0-.249-.083-.332-.166a1 1 0 01-.415-.415c-.166-.167-.332-.416-.498-.748-.166-.332-.415-.664-.581-1.162l-.167-.332c-.083-.166-.249-.498-.415-.913-.166-.416-.332-.748-.498-1.163a1.146 1.146 0 00-.249-.332h-.083s-.083-.083-.166-.083-.166-.083-.249-.083H.664c-.332 0-.498.083-.581.166L0 6.83v.166c0 .083 0 .166.083.332.415.997.913 1.993 1.411 2.99.499.912.997 1.743 1.329 2.324.415.581.747 1.162 1.162 1.66.415.498.664.83.747.997l.332.332.25.249c.166.166.415.415.747.664.332.249.747.498 1.162.747.415.25.913.415 1.411.581.582.166 1.08.25 1.578.166h1.245a.754.754 0 00.581-.249l.083-.083c0-.083.083-.083.083-.166v-.332c0-.332 0-.581.083-.83.083-.25.083-.415.166-.581.084-.166.167-.25.25-.332l.166-.166h.083c.166-.083.415 0 .58.166.25.166.499.415.665.664.166.249.415.498.747.83.332.332.581.581.747.664l.25.166c.165.083.332.166.58.25.25.082.416.082.582.082l2.822-.083c.25 0 .499-.083.665-.166.166-.083.249-.166.249-.332v-.332c-.166-.166-.166-.249-.166-.332z"/><path d="M20.59 16.71h1v-.236l-.106-.211-.894.447zm-2.076-2.408l.676-.737-.018-.016-.018-.015-.64.768zm-.913-.913l-.8.6.043.057.05.05.707-.707zm-.166-.913l-.949-.316-.012.036-.01.037.97.243zm.996-1.412l-.78-.624-.01.01.79.614zm.747-.913l.707.707.05-.05.043-.057-.8-.6zm1.66-3.238l.95-.316-.075-.224-.167-.167-.707.707zm-.082-.083l.707-.707-.707.707zm-.332-.166l-.448.895.212.105h.236v-1zm-.665 0v1h.163l.154-.051-.317-.949zm-3.736 0v-1h-.414l-.293.293.707.707zm-.083.083l-.707-.707.707.707zm-.083.166l.94.342.06-.166v-.176h-1zm-1.162 2.49l.857.515.02-.032.018-.035-.895-.447zm-1.743 2.326l.707.707.114-.115.073-.145-.894-.447zm-.25.083h1v-1h-1v1zm-.165-.083h1v-.415l-.293-.293-.707.708zm-.416-.665h-1v.236l.106.212.894-.448zm-.083-4.483h1v-.414l-.293-.293-.707.707zm-.58-.415l.706-.707-.214-.214-.297-.06-.196.981zm-4.484.415l.707.707.115-.114.072-.146-.894-.447zm-.083.25l.196-.981-.097-.02h-.1v1zm.913.497l.895-.447-.028-.056-.035-.051-.832.554zm.083.166l-.894.448.072.145.115.115.707-.708zm0 4.069l-.707-.708-.115.115-.072.145.894.447zm-.166.249v-1h-1v1h1zm-.747 0l.707-.707-.115-.115-.145-.073-.447.895zm-.415-.415l.894-.448-.072-.145-.115-.115-.707.707zm-1.08-1.91l.95-.316-.023-.068-.032-.063-.894.447zm-.166-.332l.895-.447-.895.447zM4.4 7.079l.929-.371-.016-.039-.018-.037-.895.447zm-.249-.332l.707-.707-.293-.293h-.414v1zm-.083 0l-.707.707.293.293h.414v-1zM0 6.83l-.707-.707-.293.293v.414h1zm.083.498l.923-.384-.013-.032-.016-.03-.894.446zm1.411 2.99l-.894.446.008.016.009.016.877-.479zm1.329 2.324l-.868.496.025.044.029.041.814-.581zm1.91 2.657l-.895.447.072.145.115.115.707-.707zm.331.332l-.707.707.707-.707zm.25.249l.707-.707-.708.707zm3.32 1.992l-.316.949.02.007.022.006.274-.962zm1.578.166v-1h-.083l-.082.014.165.986zm1.826-.249l.707.707-.707-.707zm.083-.083l.708.707.292-.293v-.414h-1zm.748-2.407v-1h-.415l-.293.292.708.708zm.083 0v1h.236l.21-.106-.446-.894zm.58.166l-.706.707.07.07.082.055.555-.832zm2.16 2.158l.554-.832-.052-.034-.055-.028-.448.894zm.248.166l-.554.832.052.035.055.028.447-.895zm1.163.332v1H17.132l-.03-1zm2.822-.083v-1H19.896l.03 1zm.914-.83h1v-.414l-.293-.293-.707.707zm.834-.332a1.1 1.1 0 00-.277-.729c-.029-.033-.056-.06-.058-.061l.028.03a.884.884 0 01.19.352.9.9 0 01.034.242h-2a1.1 1.1 0 00.276.729l.058.061-.027-.03a.873.873 0 01-.19-.352.9.9 0 01-.034-.242h2zm-.189-.613c-.421-.843-1.292-1.78-2.294-2.698l-1.352 1.474c.99.908 1.614 1.633 1.857 2.118l1.79-.894zm-2.33-2.729c-.465-.388-.56-.566-.846-.852l-1.414 1.414c.046.046.449.532.98.974l1.28-1.536zm-.753-.745c-.027-.035-.032-.05-.03-.045a.218.218 0 01.013.047c.002.022 0 .032.001.024a.754.754 0 01.02-.097l-1.94-.485a2.156 2.156 0 00-.062.84c.05.35.198.649.398.916l1.6-1.2zm-.017.003c-.014.042-.002-.009.17-.247.155-.211.368-.483.666-.867l-1.578-1.228c-.283.364-.526.674-.705.919-.158.218-.354.5-.45.79l1.897.633zm.828-1.103c.393-.492.476-.633.673-.83l-1.414-1.415c-.3.3-.55.657-.82.996l1.561 1.25zm.766-.938c.634-.844 1.13-1.581 1.447-2.194.16-.306.291-.614.368-.913.073-.285.122-.663-.006-1.047l-1.897.632c-.045-.134-.006-.19-.034-.082a2.492 2.492 0 01-.206.489c-.242.466-.66 1.1-1.272 1.915l1.6 1.2zm1.568-4.545l-.083-.083-1.414 1.414.083.083 1.414-1.414zm-.083-.083c-.094-.093-.434-.459-1.04-.459v2a.646.646 0 01-.393-.145l.019.018 1.414-1.414zm-.592-.353c-.487-.244-1.032-.186-1.428-.054l.633 1.897c.032-.011.05-.011.047-.011a.44.44 0 01-.146-.043l.894-1.79zm-1.111-.106h-3.155v2h3.154v-2zm-3.155 0h-.003-.001-.001-.001-.001-.002-.001-.001-.002-.001-.002-.001-.002-.002-.001-.001-.001-.001-.001-.001-.002-.001-.001-.001-.001-.002-.001-.003-.001-.001-.001-.005-.001-.001-.001-.001-.001-.001-.001-.001-.001-.006-.001-.001-.001-.001-.001-.001-.001H16.52h-.001-.001-.001-.001-.003-.001-.001-.002-.001-.002-.001-.002-.002-.002-.002-.002-.002-.001-.002-.001-.003-.001-.003-.001-.001-.001-.001H16.465h-.001-.001-.001-.003-.001-.001-.004-.004-.003-.004-.001-.004-.001-.001-.001-.001-.001-.003-.001-.001-.001-.001-.005-.001-.001-.003-.003-.003-.003-.003-.001-.003-.001-.003-.001-.003-.001-.001-.003-.001-.001-.001-.003-.001-.001-.001-.001-.005-.001-.001-.001-.001-.001-.007-.002-.002v2H16.605v-2zm-.25 0h-.006-.001-.001-.001-.001-.001-.001-.001-.001-.001-.001-.006-.001-.001-.001-.001-.001-.001-.001-.005-.001-.001-.001-.001-.001-.004-.001-.001-.001-.001-.003-.001-.001-.001-.003-.001-.001-.001-.003-.001-.001-.002-.001-.001-.003-.001-.002-.001-.001-.002-.001-.002-.001-.002-.001-.002-.002-.001-.002-.002-.002-.002-.002-.002-.002-.001-.002-.001-.002-.001-.002-.001-.001-.003-.001-.001-.001-.001-.001-.001-.001-.001-.001-.001-.001-.003-.001-.002-.002-.002-.001-.002-.001-.001-.001-.001-.002-.002-.004-.002-.001-.001-.001-.002-.002-.001-.001v2H16.356v-2zm-.166 0h-.082v2h.082v-2zm-.082 0h-.084v2h.084v-2zm-.79.293l-.084.083 1.415 1.414.082-.083-1.414-1.414zm-.084.083c-.013.013-.05.05-.084.088a1.092 1.092 0 00-.286.637c-.007.073-.006.146-.006.148h2c0-.039.002.003-.003.05a.908.908 0 01-.092.314c-.053.108-.114.175-.126.188-.01.012-.017.018.012-.01L15.233 6.04zm-.315.532c-.307.842-.68 1.51-1.117 2.385l1.788.894c.393-.785.85-1.612 1.208-2.596l-1.88-.683zm-1.08 2.317c-.257.428-.478.795-.69 1.077l1.6 1.2c.286-.381.563-.845.805-1.248L13.838 8.89zm-.69 1.077c-.306.408-.39.541-.488.64l1.414 1.415c.233-.234.482-.598.674-.855l-1.6-1.2zm-.488.64c-.049.049-.048.04-.183.156a1.66 1.66 0 00-.42.52l1.789.894c-.05.1-.112.142-.067.104a2.37 2.37 0 01.041-.034l.066-.055c.051-.043.117-.1.188-.17l-1.414-1.415zm-.415.415c.049-.049.1-.085.18-.117.011-.005.198-.087.457-.047a.969.969 0 01.82.955h-2a1.035 1.035 0 00.876 1.022c.292.045.525-.048.59-.073.183-.074.358-.193.49-.325l-1.413-1.415zm.458-.21c-.028 0-.015 0 .005.002.017 0 .096.006.197.04a.926.926 0 01.632.876h-2a1.074 1.074 0 001.038 1.08c.059.003.114.003.128.003v-2zm.54.21l-.124-.124-.124-.125-1.415 1.415.125.124.124.125 1.415-1.415zm-.248-.249a.763.763 0 01.16.232c.01.021.014.036.015.038l-.004-.014-.007-.023-.009-.033a1.872 1.872 0 00-.134-.355l-1.79.895c-.01-.02-.016-.047.017.066.011.04.037.129.078.224.043.1.12.246.26.385l1.414-1.415zm.126.292v-.002-.002-.001-.001-.001-.001-.001-.001-.001-.001-.001-.001-.001-.001-.001-.001-.001-.001-.001-.001-.001-.002-.002-.002-.002-.002-.002-.002-.002-.001-.001-.001-.001-.001-.001-.001-.001-.001-.001-.001-.001-.001-.001-.001-.001-.002-.002-.002V11v-.002-.002-.002-.001-.001-.001-.001-.001-.001-.001-.001-.001-.001-.001-.001-.002-.002-.002-.002-.002-.002-.001-.001-.001-.001-.001-.001-.001-.001-.001-.001-.002-.002-.002-.002-.002-.001-.001-.001-.001-.001-.001-.001-.001-.002-.002-.002-.002-.001-.001-.001-.001-.001-.001-.001-.002-.002-.002-.002-.001-.001-.001-.001-.001-.001-.002-.002-.002-.001-.001-.001-.001-.001-.001-.002-.002-.002-.001-.001-.001-.001-.001-.002-.002-.001-.001-.001-.001-.001-.002-.002-.001-.001-.001-.001-.001-.002-.002-.001-.001-.001-.001-.001-.002-.002-.001-.001-.001-.002-.002-.001-.001-.001-.001-.002-.002-.001-.001-.001-.002-.001-.001-.001-.001-.002-.002-.001-.001-.002-.001-.001-.001-.001-.002-.001-.001-.001-.002-.001-.001-.001-.001-.002-.001-.001-.001-.002-.001-.001-.002-.001-.001-.001-.002-.001-.001-.002-.001-.001-.001-.002-.001-.001-.002-.001-.001-.002-.001-.001-.002-.001-.002-.001-.001-.002-.001-.002-.001-.001-.002-.001-.002-.001-.002-.001-.002-.001-.002-.001-.002-.001-.002-.001-.002-.002-.001-.002-.001-.001-.001-.002-.001-.001-.001-.002-.002-.001-.001-.001-.001-.001-.002-.002-.002-.002-.002-.002-.002-.002-.001-.001-.001-.001-.001-.002-.001-.001-.001-.002-.001-.001-.001-.001-.001-.001-.002-.001-.001-.001-.001-.001-.002-.001-.001-.001-.001-.001-.001-.002-.001-.001-.001-.001-.001-.001-.001-.001-.001-.001-.001-.001-.001-.001-.001-.001-.001-.001h-2V11.065h2zm0-.415v-.001-.001-.001-.001-.001-.001-.001-.001-.001-.001-.001-.002-.001-.001-.001-.001-.001-.001-.001-.002-.001-.001-.001-.002-.002-.002-.002-.001-.001-.001-.001-.001-.002-.001-.002-.002-.001-.002-.001-.002-.001-.002-.001-.001-.002-.001-.002-.001-.001-.002-.001-.001-.001-.002-.001-.001-.002-.001-.001-.001-.001-.002-.001-.001-.001-.001-.002-.002-.001-.001-.001-.002-.002-.001-.001-.001-.001-.001-.002-.002-.002-.001-.001-.001-.001-.001-.001-.002-.002-.002-.002-.002-.001-.001-.001-.001-.001-.001-.001-.001-.001-.001-.001-.001-.001-.001-.001-.001-.001-.001-.001-.001-.001-.001-.001-.001-.001-.001-.001-.001-.001-.001-.001-.001-.001-.001-.001-.001-.001-.001-.001-.001-.001-.001-.001-.001-.002-.002-.002-.002-.002-.002-.001-.001-.001-.001-.001-.001-.001-.001-.001-.002-.002-.002-.002-.001-.001-.001-.001-.001-.001-.001-.002-.002-.002-.002-.001-.001-.001-.001-.002-.002-.002-.002-.001-.001-.001-.001-.002-.002-.002-.001-.001-.001-.001-.002-.002-.002-.001-.001-.001-.001-.002-.002-.002-.001-.001-.001-.002-.002-.002-.001-.001-.001-.002-.002-.002-.001-.001-.001-.002-.002-.002-.001-.001-.001-.002-.002-.002-.001-.001-.001-.002-.002-.001-.001-.001-.001-.002-.002-.002-.001-.001-.001-.002-.002-.001-.001-.001-.001-.002-.002-.002-.001-.001-.002-.002-.002-.001-.001-.001-.002-.002-.002-.001-.001-.002-.002-.002-.001-.001-.001-.002-.002-.002-.001-.001-.001-.001-.002-.002-.001-.001-.001-.001-.002-.002-.002-.001-.001-.001-.002-.002-.002-.001-.001-.001-.001-.002-.002-.002-.001-.001-.001-.001-.001-.002-.002-.002-.001-.001-.001-.001-.001-.002-.002-.002-.001-.001-.001-.001-.001-.001-.002-.002-.002-.002-.001-.001-.001-.001-.001-.001-.002-.002-.002-.002-.002-.001-.001-.001-.001-.001-.001-.001-.001-.001-.002-.002-.002-.002-.002-.002-.002-.002-.002-.001-.001-.001-.001-.001-.001-.001-.001-.001-.001-.001-.001-.001-.001-.001-.001-.001-.001-.001-.001-.001-.002-.002h-2V10.65h2zm0-.498v-.001-.002-.001-.002-.001-.002-.001-.002-.002-.002-.001-.002-.001-.002-.001-.001-.002-.001-.002-.001-.002-.002-.002-.001-.002-.001-.001-.002-.001-.002-.001-.001-.002-.001-.002-.002-.002-.001-.002-.002-.002-.001-.001-.002-.001-.001-.002-.001-.002-.002-.002-.001-.001-.002-.001-.001-.002-.001-.001-.002-.001-.001-.002-.001-.001-.002-.001-.001-.002-.001-.001-.002-.002-.002-.002-.001-.002-.001-.001-.002-.002-.002-.002-.001-.002-.002-.002-.002-.001-.002-.002-.001-.002-.002-.001-.002V10 10v-.002-.002-.001-.002-.002-.001-.002-.002-.001-.001-.002-.002-.001-.002-.002-.001-.001-.002-.002-.001-.001-.002-.002-.001-.001-.001-.002-.002-.001-.001-.002-.002-.001-.001-.001-.002-.002-.001-.001-.001-.001-.002-.002-.001-.001-.001-.001-.002-.002-.001-.001-.001-.001-.002-.002-.002-.001-.001-.001-.001-.002-.002-.002-.001-.001-.001-.001-.001V9.9v-.002-.002-.002-.001-.001-.001-.001-.001-.001-.001-.001-.001-.002-.002-.002-.002-.002-.001-.001-.001-.001-.001-.001-.001-.001-.001-.001-.001-.001-.001-.001-.001-.001-.001-.001-.001-.001-.001-.001-.001-.001-.001-.001-.001-.001-.001-.001-.001-.001-.001-.001-.001-.001-.001-.001-.001-.001-.001-.001-.001-.002-.002-.002-.002-.001-.001-.001-.001-.001-.001-.001-.001-.002-.002-.002-.001-.001-.001-.001-.001-.002-.002V9.8 9.8v-.001-.001-.002-.002-.001-.001-.001-.001-.002-.001-.001-.001-.001-.002-.001-.001-.001-.001-.002-.001-.001-.001-.002-.001-.001-.002-.001-.001-.001-.002-.001-.001-.002-.001-.001-.002-.001-.001-.002-.001-.002-.001-.002-.001-.001-.002-.001-.002-.001-.001-.001-.001-.001-.001-.002-.001-.002-.002-.001-.001-.001-.002-.001-.001-.001-.001-.001-.001-.001-.002-.002-.002-.002-.001-.001V9.7 9.7v-.001-.001-.001-.002-.001-.001-.001-.002-.001-.001-.001-.001-.001-.001-.001-.001-.001-.001-.001-.001-.001-.001-.001-.001-.001-.001-.001-.001-.001-.001-.001-.001-.001-.001-.001-.001-.001-.001-.001-.001-.001-.001-.001-.001-.001h-2V10.151h2zm0-.498v-.001-.002-.001-.002-.001-.002-.001-.002-.001-.002-.001-.002-.001-.002-.001-.002-.001-.002-.001-.002-.001-.002-.001-.002-.001-.002-.001-.002-.001-.002-.001-.002-.001-.002-.001-.002-.001-.002-.001-.002-.001-.002-.001-.002-.002-.001-.002-.001-.002-.001-.002-.001-.002-.001-.002-.002-.001-.002-.001-.002-.001-.002-.002-.001-.002-.001-.002-.001-.002-.002-.001-.002-.001-.002-.002-.001-.002-.001-.002-.002-.001-.002-.001-.002-.002-.001-.002-.001-.002-.002-.001-.002-.001-.002-.002-.001-.002-.002V9.5v-.002-.001-.002-.002-.001-.002-.002-.001-.002-.002-.001-.002-.002-.001-.002-.001-.002-.002-.001-.002-.002-.001-.002-.002-.001-.002-.002-.001-.002-.002-.001-.002-.002-.001-.002-.002-.001-.002-.002-.002-.001-.002-.002-.001-.002-.002-.001-.002-.002-.001-.002-.002-.002-.001-.002-.002-.001-.002V9.4 9.4v-.001-.002-.002-.001-.002-.002-.002-.001-.002-.002-.002-.001-.002-.002-.001-.002-.002-.002-.001-.002-.002-.002-.001-.002-.002-.002-.001-.002-.002-.002-.001-.002-.002-.002-.001-.002-.002-.002-.001-.002-.002-.002-.001-.002-.002-.002-.002-.001-.002-.002-.002-.001-.002-.002-.002-.002V9.3v-.002-.002-.002-.001-.002-.002-.002-.002-.001-.002-.002-.002-.002-.001-.002-.002-.002-.002-.001-.002-.002-.002-.002-.001-.002-.002-.002-.002-.001-.002-.002-.002-.002-.002-.001-.002-.002-.002-.002-.001-.002-.002-.002-.002-.002-.001-.002-.002-.002-.002-.002-.001-.002-.002V9.2v-.002-.002-.001-.002-.002-.002-.002-.002-.002-.001-.002-.002-.002-.002-.002-.001-.002-.002-.002-.002-.002-.002-.001-.002-.002-.002-.002-.002-.002-.001-.002-.002-.002-.002-.002-.002-.002-.001-.002-.002-.002-.002-.002-.002-.002-.001-.002-.002-.002-.002-.002-.002-.002V9.1v-.002-.002-.002-.002-.002-.002-.002-.001-.002-.002-.002-.002-.002-.002-.002-.002-.001-.002-.002-.002-.002-.002-.002-.002-.002-.002-.001-.002-.002-.002-.002-.002-.002-.002-.002-.002-.001-.002-.002-.002-.002-.002-.002-.002-.002-.002-.002-.001-.002-.002-.002V9v-.002-.002-.002-.002-.002-.002-.001-.002-.002-.002-.002-.002-.002-.002-.002-.002-.002-.002-.001-.002-.002-.002-.002-.002-.002-.002-.002-.002-.002-.002-.002-.002-.001-.002-.002-.002-.002-.002-.002-.002-.002-.002-.002-.002-.002-.002-.001-.002-.002-.002-.002V8.9v-.002-.002-.002-.002-.002-.002-.002-.002-.002-.001-.002-.002-.002-.002-.002-.002-.002-.002-.002-.002-.002-.002-.002-.002-.002-.001-.002-.002-.002-.002-.002-.002-.002-.002-.002-.002-.002-.002-.002-.002-.002-.002-.001-.002-.002-.002-.002-.002-.002-.002-.002V8.8v-.002-.002-.002-.002-.002-.002-.002-.001-.002-.002-.002-.002-.002-.002-.002-.002-.002-.002-.002-.002-.002-.002-.002-.002-.002-.002-.001-.002-.002-.002-.002h-2V9.653h2zm0-.913v-.002-.002-.002-.002-.002-.002-.002-.002-.002-.002-.002-.001-.002-.002-.002-.002-.002-.002-.002-.002V8.7v-.002-.001-.002-.002-.002-.002-.002-.002-.002-.002-.002-.001-.002-.002-.002-.002-.002-.002-.002-.001-.002-.002-.002-.002-.002-.002-.001-.002-.002-.002-.002-.002-.002-.001-.002-.002-.002-.002-.002-.001-.002-.002-.002-.002-.002-.001-.002-.002-.002-.002-.001-.002V8.6v-.002-.002-.001-.002-.002-.002-.002-.001-.002-.002-.002-.002-.001-.002-.002-.002-.001-.002-.002-.002-.002-.001-.002-.002-.002-.001-.002-.002-.002-.001-.002-.002-.002-.001-.002-.002-.002-.001-.002-.002-.001-.002-.002-.002-.001-.002-.002-.001-.002-.002-.002-.001-.002-.002-.001-.002V8.5 8.5v-.001-.002-.002-.001-.002-.002-.001-.002-.002-.001-.002-.002-.001-.002-.002-.001-.002-.002-.001-.002-.002-.001-.002-.002-.001-.002-.002-.001-.002-.002-.001-.002-.001-.002-.002-.001-.002-.002-.001-.002-.001-.002-.002-.001-.002-.002-.001-.002-.001-.002-.002-.001-.002-.001-.002-.001-.002-.002-.001V8.4 8.4v-.002-.002-.001-.002-.001-.002-.001-.002-.002-.001-.002-.001-.002-.001-.002-.001-.002-.002-.001-.002-.001-.002-.001-.002-.001-.002-.001-.002-.001-.002-.001-.002-.001-.002-.002-.001-.002-.001-.002-.001-.002-.001-.002-.001-.002-.001-.002-.001-.002-.001-.001-.002-.001-.002-.001-.002-.001-.002-.001-.002-.001-.002-.001-.002-.001V8.3v-.002-.001-.002-.001-.002-.001-.002-.001-.001-.002-.001-.002-.001-.002-.001-.002-.002-.002-.001-.002-.001-.001-.002-.001-.002-.001-.001-.002-.001-.002-.001-.001-.002-.001-.002-.001-.001-.002-.001-.001-.002-.001-.002-.001-.001-.002-.001-.001-.002-.001-.002-.002-.002-.002-.002-.002-.002-.001-.001-.002-.001-.001-.002-.002-.002V8.2v-.002-.002-.001-.002-.001-.001-.002-.001-.001-.002-.002-.001-.002-.001-.001-.002-.002-.001-.002-.001-.001-.002-.002-.001-.002-.002-.001-.002-.002-.001-.002-.002-.001-.002-.002-.001-.002-.002-.001-.001-.002-.002-.001-.002-.002-.001-.001-.002-.002-.001-.001-.002-.002-.001-.001-.002-.002-.001-.001-.001-.002-.002-.001-.001V8.1v-.002-.001-.001-.001-.001-.002-.002-.001-.001-.001-.001-.002-.002-.001-.001-.001-.001-.002-.002-.002-.001-.001-.001-.001-.002-.002-.002-.001-.001-.001-.001-.001-.002-.002-.002-.001-.001-.001-.001-.001-.001-.001-.002-.002-.002-.002-.002-.001-.001-.001-.001-.001-.001-.001-.001-.001-.001-.001-.001-.001-.001-.002-.002-.002-.002-.002-.002-.002-.002-.002V8v-.002-.002-.002-.001h-2V8.74h2zm0-.747v-.001-.001-.001-.001-.001-.001-.001-.001-.001-.001-.001-.001-.001-.001-.001-.001-.001-.001-.001-.001-.001-.001-.001-.001-.001-.001-.001-.001-.001-.001-.001-.002-.002-.002-.002-.002-.002-.001-.001-.001-.001-.001-.001-.001-.001-.001-.001-.002-.002-.002-.002-.001-.001-.001-.001-.001-.001-.001-.002-.002-.002-.001-.001-.001-.001-.001-.001-.002-.002-.002-.001-.001-.001-.001-.001V7.9v-.002-.002-.001-.001-.001-.002-.002-.002-.001-.001-.001-.002-.002-.002-.001-.001-.001-.002-.002-.001-.001-.001-.001-.002-.002-.001-.001-.001-.002-.002-.001-.001-.001-.001-.002-.002-.001-.001-.001-.002-.002-.001-.001-.001-.002-.002-.001-.001-.001-.002-.002-.001-.001-.001-.002-.002-.001-.001-.002-.002-.001-.001-.001-.002-.002-.001-.001-.002V7.8 7.8v-.001-.002-.002-.001-.001-.002-.002-.001-.001-.002-.002-.001-.001-.002-.002-.001-.001-.002-.002-.001-.001-.002-.002-.001-.001-.002-.002-.001-.001-.002-.002-.001-.001-.002-.002-.001-.002-.002-.001-.001-.002-.002-.001-.001-.002-.002-.001-.002-.002-.001-.001-.002-.002-.001-.001-.002-.002-.001-.002-.002-.001-.001-.002-.002-.001V7.7v-.002-.002-.001-.002-.002-.001-.001-.002-.002-.001-.001-.002-.002-.001-.002-.002-.001-.001-.002-.002-.001-.001-.002-.002-.001-.002-.002-.001-.001-.002-.002-.001-.001-.002-.002-.001-.001-.002-.002-.001-.002-.002-.001-.001-.002-.002-.001-.001-.002-.002-.001-.001-.002-.002-.001-.001-.002-.002-.001-.001-.002-.002-.001-.001V7.6v-.002-.002-.001-.001-.002-.002-.001-.001-.002-.002-.001-.001-.001-.002-.002-.001-.001-.001-.002-.002-.001-.001-.002-.002-.001-.001-.001-.002-.002-.001-.001-.001-.001-.002-.002-.001-.001-.001-.002-.002-.001-.001-.001-.001-.002-.002-.001-.001-.001-.001-.002-.002-.001-.001-.001-.001-.002-.002-.002-.001-.001-.001-.002-.002-.002-.001-.001-.001-.001-.002V7.5v-.002-.001-.001-.001-.001-.002-.002-.002-.001-.001-.001-.001-.001-.001-.002-.002-.002-.002-.001-.001-.001-.001-.001-.001-.002-.002-.002-.002-.002-.001-.001-.001-.001-.001-.001-.001-.001-.001-.001-.001-.001-.002-.002-.002-.002-.002-.002-.002-.002-.002-.002-.002-.002-.002-.002-.002-.002-.002h-2V7.992h2zm0-.582V7.41v-.002-.001-.001-.002-.001V7.4 7.4v-.002-.001-.002-.001-.001-.002-.001-.002-.001-.002-.001-.001-.002-.001-.002-.001-.002-.002-.002-.001-.002-.002-.002-.001-.002-.002-.002-.001-.001-.002-.001-.002-.001-.001-.002-.001-.001-.002-.001-.002-.002-.002-.001-.001-.002-.001-.001-.002-.001-.001-.002-.001-.001-.002-.001-.001-.002-.001-.001-.002-.001-.001-.002-.001-.001-.002-.001-.001-.002-.002-.002-.002-.001-.002-.001-.001-.002-.002-.001-.002-.001-.001-.002-.002-.001-.002-.002-.001-.002-.002-.001-.002-.002-.001-.002-.002-.001-.002-.002-.001-.002-.002-.001-.001-.002-.002-.001-.001-.002-.002-.001-.002-.002-.001-.001-.002-.002-.001-.001-.001-.002-.002-.001-.001-.001-.002-.002-.001-.001-.001-.002V7.2 7.2v-.001-.001-.002-.002-.001-.001-.001-.001-.002-.002-.002-.001-.001-.001-.002-.002-.002-.001-.001-.001-.001-.002-.002-.002-.001-.001-.001-.001-.001-.001-.001-.002-.002-.002-.002-.001-.001-.001-.001-.001-.001-.001-.001-.002-.002-.002-.002-.002-.002-.002-.001-.001-.001-.001-.001-.001-.001-.001-.001-.001-.001-.001-.001-.001-.001-.001-.001-.001-.001-.001-.001-.001-.001-.001-.001-.001-.001-.002-.002-.002-.002-.002-.002-.001-.001-.001-.001-.001-.001-.001-.001-.001-.002-.002-.002-.001-.001-.001-.001-.001-.002-.002-.001-.001-.001-.001-.001-.002-.002-.001-.001-.001-.001-.002-.001-.001-.001-.001-.002-.001-.001-.001-.001-.002-.001-.001-.001-.002-.001-.001-.001-.002-.001-.001-.001-.002-.001-.001-.002-.001-.001-.002-.001-.001-.002-.001-.002-.001-.002-.001-.001V7 7v-.002-.001-.002-.001-.001-.001-.002-.001-.002-.001-.001-.001-.002-.001-.001-.001-.001-.001-.002-.002-.002-.001-.001-.001-.001-.001-.001-.002-.002-.001-.001-.001-.001-.001-.002-.001-.001-.001-.002-.001-.002-.001-.002-.001-.001-.001-.001-.001-.002-.001-.001-.001-.001-.001-.001-.001-.001-.001-.001-.001-.001-.001-.001-.001-.001-.001-.001-.001-.001-.001-.001h-2V7.412h2zm0-.498a1.207 1.207 0 00-.048-.338c-.016-.06-.036-.12-.045-.144l-.012-.038c.001.004.006.02.01.046a.811.811 0 01.012.142h-2a1.196 1.196 0 00.048.338c.017.06.037.12.045.144l.013.038c-.001-.004-.006-.02-.01-.046a.798.798 0 01-.013-.142h2zm-.376-1.039l-.124-.125-.125-.124-1.414 1.414.125.125.124.124 1.414-1.414zm-.249-.249a1.248 1.248 0 00-.368-.253c-.085-.038-.168-.065-.189-.072-.04-.013-.02-.008.007.005a.753.753 0 01.218.154L10.75 6.873c.137.137.28.212.369.253.084.038.167.065.188.072.041.013.021.008-.007-.005a.755.755 0 01-.218-.154l1.414-1.414zm-.843-.44A8.436 8.436 0 009.963 5v2c.485 0 .91.069 1.298.147l.392-1.962zM9.963 5c-.681 0-1.276.021-1.756.067-.43.04-.914.112-1.265.288l.894 1.788c-.02.01.12-.043.561-.085C8.79 7.02 9.315 7 9.963 7V5zm-3.021.355c-.102.05-.605.264-.862.779l1.788.894a.523.523 0 01-.136.17l.015-.009.09-.045-.895-1.79zm-.675.519c-.068.068-.14.148-.204.238-.056.08-.146.222-.194.413-.048.193-.084.596.224.948.283.324.647.357.798.357v-2c.109 0 .442.023.707.326.29.331.249.704.211.855-.037.15-.102.24-.114.257-.02.028-.029.035-.014.02L6.267 5.874zm.428 1.937c.136.027.226.062.275.088.05.027.033.03.002-.016l1.664-1.11c-.383-.575-1.032-.82-1.549-.923l-.392 1.96zm.215-.035l.083.166 1.789-.895-.083-.166-1.79.895zm.27.426a.77.77 0 01-.183-.289c0-.004 0-.002.003.01l.013.054.02.087c.018.067.04.15.072.245l1.897-.633c-.025-.076-.028-.105-.062-.237a1.757 1.757 0 00-.08-.251 1.233 1.233 0 00-.266-.4L7.18 8.201zm-.075.107c.022.067.031.146.031.514h2c0-.297.01-.716-.134-1.147l-1.897.633zm.031.514V10.15h2v-.002-.002-.002-.002-.002-.002-.002-.002-.002-.001-.002-.003-.002-.002-.002-.002-.002-.002-.002-.002-.002-.002-.002-.002-.002-.002-.002-.002-.002-.002-.002-.002-.002-.002-.002-.002-.002-.002-.003-.002-.002-.002-.002-.002-.002-.002-.002-.002-.003-.002-.002-.002-.002-.002-.002-.003-.002-.002-.002-.002-.002-.002-.003-.002-.002-.002-.002-.003-.002-.002-.002-.002-.003-.002-.002-.002-.002-.003-.002-.002-.002-.003-.002-.002-.002-.002-.003-.002-.002-.002-.003-.002-.002-.003-.002-.002-.002-.003-.002-.002-.002-.003-.002-.002-.003-.002-.002-.003-.002-.002-.003-.002-.002-.003-.002-.002-.003-.002-.002-.003-.002-.002-.003-.002-.002-.003-.002-.002-.003-.002-.003-.002-.002-.003-.002-.003-.002-.002-.003-.002-.003-.002-.002-.003-.002-.003-.002-.002-.003-.002-.003-.002-.003-.002-.003-.002-.002V9.8 9.8v-.003-.002-.003-.002-.003-.002-.003-.002-.003-.002-.002-.003-.002-.003-.002-.003-.002-.003-.002-.003-.002-.003-.002-.003-.003-.002-.003-.002-.003-.002-.003-.002-.003-.002-.003-.002-.003-.002V9.7v-.003-.002-.003-.002-.003-.002-.003-.003-.002-.003-.002-.003-.002-.003-.003-.002-.003-.002-.003-.003-.002-.003-.002-.003-.003-.002-.003-.002-.003-.003-.002-.003-.002-.003-.003-.002-.003-.003V9.6v-.003-.003-.002-.003-.003-.002-.003-.002-.003-.003-.002-.003-.003-.002-.003-.003-.002-.003-.003-.002-.003-.003-.002-.003-.003-.003-.002-.003-.003-.002-.003-.003-.002-.003-.003-.003-.002-.003-.003-.002-.003-.003-.003-.002-.003-.003-.002-.003-.003-.003-.002-.003-.003-.003-.002-.003-.003-.002-.003-.003-.003-.002-.003-.003-.003-.002-.003-.003-.003-.003-.002-.003-.003V9.4v-.002-.003-.003-.003-.002-.003-.003-.003-.003-.002-.003-.003-.003-.002-.003-.003-.003-.003-.002-.003-.003-.003-.003-.002-.003-.003-.003-.003-.002-.003-.003-.003-.003-.003-.002-.003-.003-.003-.003-.002-.003-.003-.003-.003-.003-.002-.003-.003-.003-.003-.003-.002-.003-.003-.003-.003-.003-.002-.003-.003-.003-.003-.003-.003-.002-.003-.003-.003-.003-.003V9.2v-.003-.003-.003-.003-.003-.003-.003-.002-.003-.003-.003-.003-.003-.003-.002-.003-.003-.003-.003-.003-.003-.003-.002-.003-.003-.003-.003-.003-.003-.003-.002-.003-.003-.003-.003-.003-.003-.003-.003-.002-.003-.003-.003-.003-.003-.003-.003-.003-.002-.003-.003-.003-.003-.003-.003-.003-.003-.003-.002-.003-.003-.003-.003-.003-.003-.003-.003-.003-.002-.003-.003-.003-.003-.003-.003-.003-.003-.003-.003-.002-.003-.003-.003-.003-.003-.003-.003-.003-.003-.003-.002-.003-.003-.003-.003-.003-.003-.003-.003-.003-.003-.003-.002-.003-.003-.003-.003-.003-.003-.003-.003-.003-.003-.003-.002-.003-.003-.003-.003-.003-.003-.003-.003-.003-.003-.003-.002-.003-.003-.003h-2zm0 1.328c0 .138-.013.25-.031.378-.015.106-.052.32-.052.535h2c0-.034.005-.068.032-.252.023-.163.051-.383.051-.66h-2zm-.083.913c0 .014-.002-.002.012-.04a.487.487 0 01.115-.169l1.414 1.415c.304-.304.46-.742.46-1.206h-2zm-.06.051a2.668 2.668 0 00-.078.172c-.024.057-.015.034-.005.015.01-.02.078-.16.236-.287a.925.925 0 01.575-.203v2a1.074 1.074 0 00.978-.615c.03-.061.06-.136.062-.14a.726.726 0 01.02-.047l-1.788-.895zm.728.697l-1-.001v-.001-.002-.004a1.01 1.01 0 01.012-.144.927.927 0 01.905-.765v2a1.073 1.073 0 001.08-1.008 1.092 1.092 0 00.003-.067v-.004-.002-.001l-1-.001zm-.083-.917a1.188 1.188 0 00-.478.101l-.028.012c-.005.002.017-.007.05-.016a.533.533 0 01.124-.014v2a1.471 1.471 0 00.569-.113l.045-.02c.009-.003.001 0-.013.006a.817.817 0 01-.269.044v-2zm-.332.083a.818.818 0 01.228.033.365.365 0 01.079.035.489.489 0 01.068.059l-1.414 1.414c.14.14.301.239.426.301.093.047.329.158.613.158v-2zm.115-.06a.174.174 0 01.026.014l-.005-.004-.004-.004s.007.008.015.025l-1.789.895c.18.36.503.682.863.862l.894-1.789zm-.155-.229c-.06-.059-.168-.202-.31-.487l-1.79.895c.19.379.413.734.686 1.007l1.414-1.415zm-.31-.487c-.094-.185-.245-.438-.312-.557a2.74 2.74 0 01-.216-.474l-1.897.632c.11.33.245.597.365.813.141.254.197.334.27.48l1.79-.894zM6.373 9.04l-.166-.332-1.789.894.166.332 1.789-.894zm-.166-.332c-.08-.162-.231-.463-.381-.838l-1.857.743c.182.456.364.819.45.99l1.788-.895zm-.381-.838c-.091-.227-.182-.43-.264-.616a15.35 15.35 0 01-.234-.546l-1.857.743c.09.227.181.43.263.616.084.188.16.358.235.546l1.857-.743zm-.532-1.238c-.157-.313-.333-.488-.437-.592L3.444 7.454c.044.045.048.05.05.053h.001v.001a.205.205 0 01.01.019l1.79-.895zM4.15 5.747h-.083v2h.083v-2zm-.083 1l.707-.707-.001-.001-.002-.002a.299.299 0 00-.025-.024 1.327 1.327 0 00-.176-.14 1.213 1.213 0 00-.669-.209v2a.836.836 0 01-.44-.126.603.603 0 01-.098-.08l-.002-.002v-.001l.706-.708zm-.166-1.083a.825.825 0 01.331.068l-.008-.004-.054-.026a1.176 1.176 0 00-.518-.12v2a.825.825 0 01-.331-.07c-.003 0-.004-.001.008.005l.054.026a1.176 1.176 0 00.518.12V5.665zm-.249-.083H.664v2h2.989v-2zm-2.989 0c-.486 0-.951.122-1.288.46L.79 7.453a.52.52 0 01-.194.128c-.031.01-.018 0 .068 0v-2zm-1.288.46l-.083.082L.707 7.537l.083-.083L-.624 6.04zM0 6.83h-1V6.997h2v-.001-.001-.001-.001-.001-.001-.001-.001-.001-.001-.001-.001-.001-.001-.001-.001-.001-.001-.001-.001-.001-.001-.001-.001-.001-.001-.001-.001-.001-.001-.001-.001-.001-.001-.001-.001-.001-.001-.001-.001-.001-.001-.001-.001-.001-.001-.001-.001-.001-.001-.001-.001-.001-.001-.001-.001-.001-.001-.001-.001-.001-.001-.001-.001-.001-.001-.001-.001-.001-.001-.001-.001-.001-.001-.001-.001-.001-.001-.001-.001-.001-.001-.001-.001-.001-.001-.001-.001-.001-.001-.001-.001-.001-.001V6.9 6.9v-.001-.001-.001-.001-.001-.001-.001-.001-.001-.001-.001-.001-.001-.001-.001-.001-.001-.001-.001-.001-.001-.001-.001-.001-.001-.001-.001-.001-.001-.001-.001-.001-.001-.001-.001-.001-.001-.001-.001-.001-.001-.001-.001-.001-.001-.001-.001-.001-.001-.001-.001-.001-.001-.001-.001-.001-.001-.001-.001-.001-.001-.001-.001-.001-.001-.001-.001-.001-.001H0zm-1 .165c0 .043-.002.173.03.331.031.158.087.305.159.449L.977 6.88c-.01-.022.003 0 .014.054A.49.49 0 011 7.001v-.005h-2zm.16.717C-.41 8.747.105 9.774.6 10.764l1.789-.894c-.501-1.002-.983-1.967-1.383-2.926l-1.846.769zm1.457 3.083c.503.923 1.02 1.787 1.338 2.342l1.736-.992c-.347-.608-.826-1.404-1.319-2.308l-1.755.958zm1.392 2.427c.195.273.364.537.563.835.19.286.402.592.645.885l1.536-1.28a8.321 8.321 0 01-.517-.715c-.175-.262-.38-.58-.6-.887L2.01 13.223zm1.208 1.72c.202.242.356.435.466.582.122.162.157.225.155.22l1.789-.894c-.146-.29-.48-.716-.874-1.189l-1.536 1.28zm.808 1.063l.11.11.024.024.011.01.002.002.001.002.003.002.003.003.001.002h.001l.002.002c.004.005-.004-.003.001.002l.003.002.002.003.002.001.001.002.01.01.01.01.002.001.001.002c.003.002-.002-.002.001 0v.001l.001.001.002.001v.001l.003.003c.06.06-.04-.041.02.019l.018.018.034.034.032.032.002.002.002.002v.001l.002.001.002.002.004.004.002.002v.001l.002.001.015.016 1.414-1.415-.003-.003-.001-.001-.001-.001-.001-.001-.001-.001-.004-.004-.004-.004-.016-.016-.032-.032-.004-.004a.208.208 0 01-.004-.004l-.005-.005-.004-.004-.004-.004-.001-.001-.001-.001-.001-.001-.001-.001-.001-.001-.002-.002-.002-.002h-.001v-.002h-.001l-.002-.002-.037-.037-.198-.197-1.414 1.414zm.332.332l.25.249 1.414-1.414-.25-.25-1.414 1.415zm.25.249c.168.168.46.462.854.757l1.2-1.6a5.818 5.818 0 01-.64-.571l-1.415 1.414zm.854.757c.381.286.845.563 1.247.805l1.03-1.715c-.428-.257-.795-.478-1.077-.69l-1.2 1.6zm1.247.805c.527.316 1.136.514 1.61.672l.633-1.897c-.523-.174-.91-.308-1.214-.49l-1.029 1.715zm1.652.685c.63.18 1.299.31 2.016.19l-.329-1.972c-.278.046-.605.01-1.138-.141l-.55 1.923zm1.852.204h1.245v-2h-1.245v2zm1.245 0c.241 0 .487-.041.728-.148.237-.105.418-.252.56-.394l-1.414-1.414c-.024.024-.008.002.042-.02a.306.306 0 01.065-.02c.018-.004.026-.004.02-.004v2zm1.289-.542l.083-.083L11.414 17l-.083.083 1.415 1.414zm.375-.79a.9.9 0 01-.224.595c-.019.022-.036.038-.027.03a1.22 1.22 0 00.179-.227 1.092 1.092 0 00.155-.564h-2a.9.9 0 01.224-.594l.028-.03a1.274 1.274 0 00-.18.226 1.092 1.092 0 00-.155.564h2zm.083-.166v-.001-.001-.001-.001-.001-.001-.001-.001-.001-.001-.001-.001-.001-.001-.001-.001-.001-.001-.001-.001-.001-.001-.001-.001-.001-.001-.001-.001-.001-.001-.001-.001-.001-.001-.001-.001-.001-.001-.001-.001-.001-.001-.001-.001-.001-.001-.001-.001-.001-.001-.001-.001-.001-.001-.001-.001-.001-.001-.001-.001-.001-.001-.001-.001-.002-.001-.001-.001-.001-.001-.001-.001-.001-.001-.002-.001-.001-.001-.001-.001-.001-.002-.001-.001-.001-.001-.001-.001-.001-.001-.001-.001-.002-.001-.001-.001-.002-.001-.001-.001-.001-.001-.001-.001-.001-.001-.001-.001-.001-.001-.001-.002-.001-.001-.001-.001-.001-.002-.001-.002-.001-.002-.001-.002-.001-.002-.001-.001-.001-.002-.001-.001-.001-.002-.001-.001-.001-.002-.001-.001-.001-.001-.001-.002-.002-.002-.001-.001-.001-.001-.001-.001-.001-.001-.001-.001-.001-.001-.001-.001-.002-.002-.002-.001-.001-.001-.001-.001-.002-.002-.001-.002-.002-.001-.002-.002-.001-.002-.001-.002-.002-.001-.002-.001-.002-.001-.002-.001-.002-.001-.002-.001-.001-.002-.001-.002-.001-.001-.002-.001-.002-.001-.001-.002-.001-.001-.002-.001-.001-.001-.002-.001-.001-.002-.001-.001-.001-.002-.001-.001-.001-.002-.001-.001-.001-.002-.002-.001-.001-.001-.002-.001-.001-.001-.001-.002-.002-.001-.001-.001-.001-.002-.002-.001-.001-.001-.001-.001-.002-.002-.002-.001-.001-.001-.001-.001-.001-.002-.002-.002-.002-.001-.001-.001-.001-.001-.001-.001-.001-.001-.001-.001-.002h-2V17.54h2zm0-.332c0-.367.01-.446.032-.514l-1.897-.632c-.144.43-.135.85-.135 1.146h2zm.032-.514c.062-.184.094-.346.11-.42.02-.088.02-.066.002-.03l-1.789-.894c-.1.201-.143.39-.165.49-.025.111-.034.157-.055.222l1.897.632zm.112-.45l.01-.018v-.001c.003-.004.007-.009.052-.053l-1.415-1.415c-.103.104-.28.28-.436.593l1.789.894zm.062-.072l.114-.114.037-.038.01-.01a.036.036 0 01.004-.003v-.001l-.706-.707-.707-.708-.001.001-.003.003-.01.01-.038.038-.115.114 1.415 1.415zm-.541.127h.083v-2h-.083v2zm.53-.106a.612.612 0 01-.444.053.293.293 0 01-.13-.074l1.415-1.415a1.707 1.707 0 00-.71-.427 1.393 1.393 0 00-1.026.074l.895 1.789zm-.421.104c.14.093.294.247.387.386l1.664-1.109a3.524 3.524 0 00-.942-.941l-1.109 1.664zm.387.386c.233.35.566.677.872.983l1.414-1.414c-.357-.358-.523-.53-.622-.678l-1.664 1.11zm.872.983c.16.16.323.324.467.456.126.115.32.285.54.396l.895-1.79c.04.02.05.033.025.013a1.867 1.867 0 01-.108-.094 14.547 14.547 0 01-.405-.395l-1.414 1.414zm.9.79l.249.165 1.11-1.664-.25-.166-1.11 1.664zm.356.228c.173.086.392.196.712.303l.633-1.897a3.077 3.077 0 01-.45-.195l-.895 1.789zm.712.303c.406.135.703.134.898.134v-2c-.087 0-.118 0-.15-.004a.54.54 0 01-.115-.027l-.633 1.897zm.927.134l2.823-.083-.059-2-2.823.084.06 1.999zm2.793-.083c.448 0 .852-.142 1.112-.271l-.895-1.79a.671.671 0 01-.116.045.411.411 0 01-.1.016v2zm1.112-.271c.124-.062.342-.182.52-.405.207-.258.282-.552.282-.822h-2c0-.042.005-.11.032-.194a.734.734 0 01.125-.233c.095-.12.189-.156.146-.135l.895 1.789zm.802-1.227v-.001-.001-.001-.001-.001-.001-.001-.001-.001-.001-.001-.001-.001-.001-.001-.001-.001-.001-.001-.001-.001-.001-.001-.001-.001-.001-.002-.001-.001-.001-.001-.001-.002-.001-.002-.001-.002-.001-.001-.001-.001-.001-.001-.002-.001-.001-.001-.002-.002-.001-.001-.001-.002-.002-.002-.001-.001-.001-.001-.001-.001-.001-.001-.001-.001-.001-.001-.001-.001-.001-.001-.002-.002-.002-.002-.001-.001-.001-.001-.001-.002-.002-.001-.001-.001-.002-.002-.001-.001-.001-.002-.002-.001-.002-.002-.001-.002-.002-.001-.002-.002-.001-.002-.001-.001-.001-.002-.001-.002-.002-.001-.002-.001-.002-.002-.001-.001-.001-.001-.002-.002-.001-.002-.001-.002-.002-.001-.002-.001-.002-.001-.001-.001-.002-.001-.002-.001-.001-.001-.002-.001-.002-.001-.001-.001-.002-.001-.002-.001-.001-.001-.002-.001-.002-.002-.001-.002-.002-.001-.002-.001-.001-.001-.002-.002-.001-.002-.002-.001-.001-.001-.002-.002-.001-.001-.001-.002-.002-.001-.001-.001-.001-.001-.002-.002-.002-.002-.001-.001-.001-.001-.001-.001-.001-.001-.001-.001-.001-.001-.001-.001-.002-.002-.002-.001-.001-.001-.001-.001-.002-.001-.001-.001-.001-.001-.002-.001-.002-.001-.001-.001-.001-.001-.001-.001-.001-.001-.001-.001-.001-.001-.002-.001-.001-.002-.001-.001-.001-.001-.001-.001-.001-.001-.002-.001-.001-.001-.001-.001-.001-.001-.001-.001-.002-.001-.001-.001h-2V17.54h2zm-.293-1.039c-.03-.03.028.018.076.139.026.064.04.127.047.183.005.045.004.08.004.053h-2c0 .05-.006.262.092.506.09.225.231.398.367.533l1.414-1.414z" mask="url(#aya)"/></svg><svg viewBox="0 0 36 35" id="vkontakte" xmlns="http://www.w3.org/2000/svg"><path d="M17.821 0C8.096 0 .211 7.723.211 17.25c0 9.527 7.885 17.25 17.61 17.25 9.726 0 17.61-7.723 17.61-17.25C35.432 7.723 27.548 0 17.822 0zm8.933 19.116c.82.785 1.69 1.524 2.426 2.39.327.384.634.78.869 1.226.334.636.032 1.333-.549 1.37h-3.608c-.931.075-1.673-.293-2.298-.917-.5-.497-.962-1.028-1.443-1.543a3.349 3.349 0 00-.65-.566c-.491-.313-.919-.217-1.2.286-.288.512-.353 1.08-.38 1.65-.04.833-.296 1.05-1.15 1.09-1.824.084-3.554-.187-5.163-1.088-1.419-.795-2.517-1.916-3.474-3.185-1.864-2.475-3.29-5.192-4.573-7.986-.289-.629-.078-.966.631-.979a102.46 102.46 0 013.533 0c.479.007.796.275.98.718.636 1.534 1.416 2.993 2.394 4.346.26.36.526.72.905.974.418.28.737.188.934-.269.126-.29.18-.601.208-.912.093-1.066.104-2.132-.058-3.194-.1-.665-.482-1.094-1.158-1.22-.345-.064-.294-.189-.127-.381.29-.334.563-.54 1.108-.54h4.076c.642.123.786.405.874 1.04l.003 4.437c-.007.245.126.972.576 1.133.36.116.598-.167.813-.39.978-1.017 1.674-2.216 2.298-3.457.275-.548.513-1.114.743-1.682.172-.42.438-.626.922-.619l3.925.005c.116 0 .233.001.348.02.662.111.843.39.638 1.022-.322.993-.948 1.82-1.56 2.65-.655.888-1.355 1.745-2.004 2.637-.597.815-.55 1.226.191 1.934z"/></svg><svg viewBox="0 0 15 15" id="volume" xmlns="http://www.w3.org/2000/svg"><path d="M5.446 7.5c0 1.135.919 2.054 2.054 2.054A2.052 2.052 0 009.554 7.5 2.052 2.052 0 007.5 5.446 2.051 2.051 0 005.446 7.5zm7.738-2.191l-3.433.177c.932 1.088.947 2.658.163 3.863L7.16 13.585a6.067 6.067 0 003.387-.809c2.637-1.523 3.706-4.718 2.637-7.467zM4.692 8.67L2.399 4.162A6.084 6.084 0 001.406 7.5a6.083 6.083 0 005.148 6.018L8.12 10.45c-1.415.267-2.782-.51-3.428-1.78zm3.2-4.182l5.045.265a6.1 6.1 0 00-5.459-3.347A6.091 6.091 0 002.76 3.67l1.878 2.885c.468-1.347 1.828-2.15 3.255-2.066z"/></svg><svg viewBox="0 0 24 24" id="year" xmlns="http://www.w3.org/2000/svg"><path fill-rule="evenodd" clip-rule="evenodd" d="M9 11a4 4 0 100-8 4 4 0 000 8zm0-2a2 2 0 100-4 2 2 0 000 4z"/><path d="M13 14a1 1 0 011 1v6h2v-6a3 3 0 00-3-3H5a3 3 0 00-3 3v6h2v-6a1 1 0 011-1h8zM23 11h-6v2h6v-2zM18 15h5v2h-5v-2zM23 7h-7v2h7V7z"/></svg></svg>