<svg width="53" height="53" viewBox="0 0 53 53" fill="none" xmlns="http://www.w3.org/2000/svg">
<path d="M42.298 20.7174C42.0202 20.7174 40.8231 20.7256 40.3911 20.7491L34.4905 20.9043L20.8834 4.375H14.4679L22.0866 21.1883L12.1473 21.3354L7.62456 15.8147H2.30204L4.40714 25.4342C4.42246 25.4894 4.44085 25.5435 4.46128 25.5966C4.46278 25.6016 4.46278 25.607 4.46128 25.612C4.44034 25.6647 4.42227 25.7186 4.40714 25.7733L2.27344 35.4256H7.56225L12.2045 29.8079L22.0886 30.0295L14.4669 46.8653H20.9017L34.4864 30.3441L40.387 30.5014C40.8252 30.5249 42.0212 30.5331 42.2929 30.5331C44.7801 30.5331 46.8147 30.1919 48.3407 29.5178C50.9289 28.3779 51.315 26.5864 51.315 25.6201C51.315 22.5498 47.9444 20.7174 42.298 20.7174Z" fill="white"/>
</svg>
