<svg width="36" height="35" viewBox="0 0 36 35" fill="none" xmlns="http://www.w3.org/2000/svg">
<path d="M17.8213 0C8.09568 0 0.210938 7.72306 0.210938 17.25C0.210938 26.7769 8.09568 34.5 17.8213 34.5C27.5468 34.5 35.4316 26.7769 35.4316 17.25C35.4316 7.72306 27.5468 0 17.8213 0ZM26.7541 19.1156C27.5749 19.9009 28.4433 20.64 29.1801 21.5065C29.5066 21.8898 29.8143 22.2861 30.0485 22.7319C30.3829 23.3675 30.0809 24.0646 29.5001 24.1024L25.8923 24.1016C24.9605 24.1772 24.219 23.8091 23.5938 23.1851C23.0948 22.6878 22.6318 22.1566 22.1511 21.6424C21.9548 21.4313 21.748 21.2326 21.5015 21.0762C21.0097 20.7628 20.5823 20.8588 20.3006 21.3621C20.0134 21.8742 19.9478 22.4418 19.9204 23.0118C19.8812 23.8451 19.6246 24.0628 18.771 24.102C16.9471 24.1856 15.2166 23.9146 13.6081 23.0139C12.1892 22.2194 11.091 21.0981 10.134 19.8286C8.27043 17.3538 6.84323 14.6375 5.56087 11.8433C5.27226 11.214 5.4834 10.8773 6.19214 10.8642C7.36965 10.842 8.54715 10.8448 9.72465 10.8632C10.2039 10.8706 10.5209 11.1392 10.7051 11.5821C11.3414 13.1156 12.1215 14.5747 13.099 15.9279C13.3595 16.2882 13.6254 16.6475 14.0041 16.902C14.4221 17.1829 14.7406 17.0901 14.9377 16.6331C15.0638 16.3426 15.1182 16.032 15.1456 15.7207C15.2393 14.6545 15.2504 13.5886 15.0883 12.5266C14.9874 11.862 14.6058 11.4328 13.9295 11.3072C13.5851 11.2433 13.6355 11.1184 13.803 10.9256C14.0938 10.5925 14.3662 10.3864 14.9106 10.3864L18.9869 10.3856C19.6293 10.5092 19.7734 10.7915 19.8606 11.4254L19.8642 15.8626C19.8567 16.1079 19.99 16.8349 20.4397 16.9955C20.8 17.112 21.0378 16.8289 21.2532 16.6055C22.2308 15.5894 22.9273 14.3901 23.551 13.1488C23.8262 12.6014 24.0637 12.0349 24.2943 11.4674C24.4658 11.0478 24.7324 10.8413 25.216 10.8484L29.1412 10.8529C29.2569 10.8529 29.3743 10.854 29.4889 10.8734C30.1505 10.9842 30.3317 11.2631 30.127 11.8952C29.8049 12.8884 29.1791 13.7156 28.5672 14.5451C27.9115 15.4331 27.2121 16.29 26.5628 17.1819C25.9661 17.9972 26.0133 18.4076 26.7541 19.1156Z" fill="#EDC5A2"/>
</svg>
