<svg width="15" height="15" viewBox="0 0 15 15" fill="none" xmlns="http://www.w3.org/2000/svg">
<path d="M5.44629 7.4999C5.44629 8.63516 6.36475 9.55361 7.5 9.55361C8.63526 9.55361 9.55371 8.63516 9.55371 7.4999C9.55371 6.36465 8.63526 5.44619 7.5 5.44619C6.36475 5.44619 5.44629 6.36318 5.44629 7.4999ZM13.1836 5.3085L9.75147 5.48574C10.6831 6.57412 10.6978 8.14443 9.91407 9.34854L7.16016 13.5849C8.30274 13.6464 9.48047 13.3959 10.5469 12.7763C13.1836 11.2528 14.2529 8.05801 13.1836 5.3085ZM4.6919 8.67031L2.39942 4.16152C1.75012 5.15376 1.40491 6.3141 1.40625 7.4999C1.40625 10.5468 3.63721 13.0707 6.55372 13.5175L8.11963 10.4501C6.70459 10.7167 5.33789 9.94033 4.6919 8.67031ZM7.89258 4.48818L12.9375 4.75332C12.4219 3.73086 11.6104 2.8417 10.5439 2.22207C9.57862 1.66397 8.51807 1.39883 7.47803 1.40615C5.6836 1.41348 3.93018 2.21475 2.75977 3.66934L4.6377 6.55361C5.10645 5.20742 6.46582 4.40469 7.89258 4.48818Z" fill="white"/>
</svg>
